<?xml version="1.0" encoding="UTF-8"?>
<svg id="Layer_2" data-name="Layer 2" xmlns="http://www.w3.org/2000/svg" viewBox="0 0 1348.76 251.98">
  <defs>
    <style>
      .cls-1 {
        fill: #13112d;
      }

      .cls-2 {
        fill: #5341d6;
      }

      .cls-3 {
        letter-spacing: -.01em;
      }

      .cls-4 {
        font-family: Montserrat-SemiBold, Montserrat;
        font-size: 46.07px;
        font-weight: 600;
      }

      .cls-5 {
        letter-spacing: 0em;
      }

      .cls-6 {
        letter-spacing: 0em;
      }

      .cls-7 {
        letter-spacing: -.03em;
      }
    </style>
  </defs>
  <g id="Layer_1-2" data-name="Layer 1">
    <g>
      <path class="cls-1" d="M372.05,70.47c-1.75-.24-3.52-.48-5.28-.7-19.59-2.33-36.38-6.29-36.38-20.52,0-12.13,10.97-21.69,33.82-21.69,15.47,0,29.15,6.74,36.1,14.65l19.99-19.99C406.48,5.81,384.54.74,363.28.74c-30.08.23-63.21,14-63.21,47.57,0,30.33,21.1,41.62,47.29,46.85,5.44,1.1,11.11,1.92,16.85,2.6,21.69,2.33,37.79,8.62,37.79,24.02,0,17.72-18.2,24.49-37.56,24.49s-36.9-7.18-44.81-23.38l-21.41,21.41c13.52,21.72,36.72,29.49,65.76,29.49,36.38,0,68.57-15.62,68.57-52.01s-28.51-46.81-60.49-51.32Z"/>
      <path class="cls-1" d="M35.4,143.64V.74H2.78v173.06h45.14l30.15-30.16h-42.66Z"/>
      <path class="cls-1" d="M236.2.99l-54.15,74.42L128.12,1.28l-37.79-1.28v130.92l32.63-32.63v-50.07l55.14,75.4h6.42l56.36-75.15v125.05l32.65-32.65V.99h-37.34Z"/>
      <path class="cls-1" d="M748.37,110.26c0,37.83-26.7,62.8-62.79,62.8s-62.79-24.97-62.79-62.8,26.2-63.54,62.79-63.54,62.79,25.71,62.79,63.54ZM639.35,110.26c0,28.43,19.28,47.22,46.23,47.22s46.23-18.79,46.23-47.22-19.04-48.45-46.23-48.45-46.23,20.27-46.23,48.45Z"/>
      <path class="cls-1" d="M862.34,173.06v-70.7c0-21.51-14.34-38.07-35.85-38.07s-35.85,16.56-35.85,38.07v70.7h-16.56V50.93h15.57l.74,19.04c7.91-15.33,22.99-21.26,37.83-21.26,17.55,0,35.85,7.66,43.02,28.18,8.16-19.28,25.96-28.18,44.01-28.18,31.15,0,51.42,21.01,51.42,53.15v71.2h-16.56v-71.2c0-21.76-13.6-37.58-35.11-37.58s-36.09,16.56-36.09,38.07v70.7h-16.56Z"/>
      <path class="cls-1" d="M1101.39,48.46h15.58v122.13h-15.33v-24.23c-10.63,18.05-30.16,26.7-48.46,26.7-34.61,0-62.3-24.72-62.3-63.54s27.94-62.79,62.55-62.79c18.79,0,38.81,8.65,47.96,25.96v-24.23ZM1007.45,109.52c0,28.92,20.77,47.96,46.48,47.96,63.04,0,63.04-95.67,0-95.67-25.71,0-46.48,19.04-46.48,47.71Z"/>
      <path class="cls-1" d="M1150.59,50.44v122.62h16.56V50.44h-16.56Z"/>
      <path class="cls-1" d="M1297.19,173.06v-68.48c0-26.21-15.33-40.05-39.8-40.05-23.73.25-40.05,18.54-40.05,42.03v66.5h-16.56V50.93h15.82l.5,20.52c10.14-15.58,25.96-22.5,42.52-22.5,31.64,0,54.39,18.79,54.39,55.38v68.73h-16.81Z"/>
      <path class="cls-2" d="M611.59,84.81c0,43.76-26.19,88.25-86.76,88.25h-22.11c-6.68,0-10.47-7.65-6.43-12.97l41.15-54.06c2.69-3.53,7.73-4.23,11.28-1.56l.16.12c5.73,4.31,13.82-.43,12.86-7.54l-4.76-35.21c-.6-4.42-4.67-7.52-9.09-6.92l-35.28,4.79c-7.13.97-9.53,10.07-3.81,14.43h0c3.55,2.7,4.24,7.77,1.53,11.32l-32.07,42.12c-4.68,6.15-14.5,2.84-14.5-4.89V20.2c0-11.15,9.04-20.2,20.2-20.2h40.87c58.58,0,86.76,42.03,86.76,84.81Z"/>
      <text class="cls-4" transform="translate(0 240.05)"><tspan x="0" y="0">INS</tspan><tspan class="cls-5" x="80.99" y="0">P</tspan><tspan class="cls-6" x="113.98" y="0">IRE</tspan></text>
      <text class="cls-4" transform="translate(223.25 240.05)"><tspan x="0" y="0">EDU</tspan><tspan class="cls-3" x="105.27" y="0">C</tspan><tspan class="cls-7" x="138.07" y="0">A</tspan><tspan x="170.96" y="0">TE</tspan></text>
      <text class="cls-4" transform="translate(481.96 240.05)"><tspan class="cls-5" x="0" y="0">A</tspan><tspan x="34.05" y="0">CHI</tspan><tspan class="cls-5" x="119.55" y="0">E</tspan><tspan class="cls-3" x="149.96" y="0">V</tspan><tspan x="182.85" y="0">E</tspan></text>
      <rect class="cls-2" x="1325.55" y="149.85" width="23.21" height="23.21" rx="11.6" ry="11.6"/>
    </g>
  </g>
</svg>