<svg width="1347" height="233" viewBox="0 0 1347 233" fill="none" xmlns="http://www.w3.org/2000/svg">
<path d="M370.051 70.4702C368.301 70.2302 366.531 69.9902 364.771 69.7702C345.181 67.4402 328.391 63.4802 328.391 49.2502C328.391 37.1202 339.361 27.5602 362.211 27.5602C377.681 27.5602 391.361 34.3002 398.311 42.2102L418.301 22.2202C404.481 5.81023 382.541 0.740234 361.281 0.740234C331.201 0.970234 298.071 14.7402 298.071 48.3102C298.071 78.6402 319.171 89.9302 345.361 95.1602C350.801 96.2602 356.471 97.0802 362.211 97.7602C383.901 100.09 400.001 106.38 400.001 121.78C400.001 139.5 381.801 146.27 362.441 146.27C343.081 146.27 325.541 139.09 317.631 122.89L296.221 144.3C309.741 166.02 332.941 173.79 361.981 173.79C398.361 173.79 430.551 158.17 430.551 121.78C430.551 85.3902 402.041 74.9702 370.061 70.4602L370.051 70.4702Z" fill="#13112D"/>
<path d="M33.3993 143.64V0.740234H0.779297V173.8H45.9193L76.0693 143.64H33.4093H33.3993Z" fill="#13112D"/>
<path d="M234.2 0.99L180.05 75.41L126.12 1.28L88.3301 0V130.92L120.96 98.29V48.22L176.1 123.62H182.52L238.88 48.47V173.52L271.53 140.87V0.99H234.19H234.2Z" fill="#13112D"/>
<path d="M746.369 110.261C746.369 148.091 719.669 173.061 683.579 173.061C647.489 173.061 620.789 148.091 620.789 110.261C620.789 72.4307 646.989 46.7207 683.579 46.7207C720.169 46.7207 746.369 72.4307 746.369 110.261ZM637.349 110.261C637.349 138.691 656.629 157.481 683.579 157.481C710.529 157.481 729.809 138.691 729.809 110.261C729.809 81.8307 710.769 61.8107 683.579 61.8107C656.389 61.8107 637.349 82.0807 637.349 110.261Z" fill="#13112D"/>
<path d="M860.34 173.061V102.361C860.34 80.8509 846 64.2909 824.49 64.2909C802.98 64.2909 788.64 80.8509 788.64 102.361V173.061H772.08V50.9309H787.65L788.39 69.9709C796.3 54.6409 811.38 48.7109 826.22 48.7109C843.77 48.7109 862.07 56.3709 869.24 76.8909C877.4 57.6109 895.2 48.7109 913.25 48.7109C944.4 48.7109 964.67 69.7209 964.67 101.861V173.061H948.11V101.861C948.11 80.1009 934.51 64.2809 913 64.2809C891.49 64.2809 876.91 80.8409 876.91 102.351V173.051H860.35L860.34 173.061Z" fill="#13112D"/>
<path d="M1099.39 48.4605H1114.97V170.59H1099.64V146.36C1089.01 164.41 1069.48 173.06 1051.18 173.06C1016.57 173.06 988.881 148.34 988.881 109.52C988.881 70.7005 1016.82 46.7305 1051.43 46.7305C1070.22 46.7305 1090.24 55.3805 1099.39 72.6905V48.4605ZM1005.45 109.52C1005.45 138.44 1026.22 157.48 1051.93 157.48C1114.97 157.48 1114.97 61.8105 1051.93 61.8105C1026.22 61.8105 1005.45 80.8505 1005.45 109.52Z" fill="#13112D"/>
<path d="M1148.59 50.4395V173.059H1165.15V50.4395H1148.59Z" fill="#13112D"/>
<path d="M1295.19 173.059V104.579C1295.19 78.3692 1279.86 64.5292 1255.39 64.5292C1231.66 64.7792 1215.34 83.0692 1215.34 106.559V173.059H1198.78V50.9292H1214.6L1215.1 71.4492C1225.24 55.8692 1241.06 48.9492 1257.62 48.9492C1289.26 48.9492 1312.01 67.7392 1312.01 104.329V173.059H1295.2H1295.19Z" fill="#13112D"/>
<path d="M609.59 84.81C609.59 128.57 583.4 173.06 522.83 173.06H500.72C494.04 173.06 490.25 165.41 494.29 160.09L535.44 106.03C538.13 102.5 543.17 101.8 546.72 104.47L546.88 104.59C552.61 108.9 560.7 104.16 559.74 97.05L554.98 61.84C554.38 57.42 550.31 54.32 545.89 54.92L510.61 59.71C503.48 60.68 501.08 69.78 506.8 74.14C510.35 76.84 511.04 81.91 508.33 85.46L476.26 127.58C471.58 133.73 461.76 130.42 461.76 122.69V20.2C461.76 9.05 470.8 0 481.96 0H522.83C581.41 0 609.59 42.03 609.59 84.81Z" fill="#5341D6"/>
<path d="M166.228 213.646H181.888V218.461H166.228V213.646ZM166.678 227.146H184.453V232.051H160.828V200.551H183.823V205.456H166.678V227.146Z" fill="#13112D"/>
<path d="M127.914 232.051V200.551H140.874C143.664 200.551 146.049 201.001 148.029 201.901C150.039 202.801 151.584 204.091 152.664 205.771C153.744 207.451 154.284 209.446 154.284 211.756C154.284 214.066 153.744 216.061 152.664 217.741C151.584 219.391 150.039 220.666 148.029 221.566C146.049 222.436 143.664 222.871 140.874 222.871H131.154L133.764 220.216V232.051H127.914ZM148.524 232.051L140.559 220.621H146.814L154.824 232.051H148.524ZM133.764 220.846L131.154 218.056H140.604C143.184 218.056 145.119 217.501 146.409 216.391C147.729 215.281 148.389 213.736 148.389 211.756C148.389 209.746 147.729 208.201 146.409 207.121C145.119 206.041 143.184 205.501 140.604 205.501H131.154L133.764 202.621V220.846Z" fill="#13112D"/>
<path d="M113.543 232.051V200.551H119.393V232.051H113.543Z" fill="#13112D"/>
<path d="M81.332 232.051V200.551H94.292C97.082 200.551 99.467 201.001 101.447 201.901C103.457 202.801 105.002 204.091 106.082 205.771C107.162 207.451 107.702 209.446 107.702 211.756C107.702 214.066 107.162 216.061 106.082 217.741C105.002 219.421 103.457 220.711 101.447 221.611C99.467 222.511 97.082 222.961 94.292 222.961H84.572L87.182 220.216V232.051H81.332ZM87.182 220.846L84.572 218.011H94.022C96.602 218.011 98.537 217.471 99.827 216.391C101.147 215.281 101.807 213.736 101.807 211.756C101.807 209.746 101.147 208.201 99.827 207.121C98.537 206.041 96.602 205.501 94.022 205.501H84.572L87.182 202.621V220.846Z" fill="#13112D"/>
<path d="M62.795 232.502C60.335 232.502 57.98 232.157 55.73 231.467C53.48 230.747 51.695 229.832 50.375 228.722L52.4 224.177C53.66 225.167 55.22 225.992 57.08 226.652C58.94 227.312 60.845 227.642 62.795 227.642C64.445 227.642 65.78 227.462 66.8 227.102C67.82 226.742 68.57 226.262 69.05 225.662C69.53 225.032 69.77 224.327 69.77 223.547C69.77 222.587 69.425 221.822 68.735 221.252C68.045 220.652 67.145 220.187 66.035 219.857C64.955 219.497 63.74 219.167 62.39 218.867C61.07 218.567 59.735 218.222 58.385 217.832C57.065 217.412 55.85 216.887 54.74 216.257C53.66 215.597 52.775 214.727 52.085 213.647C51.395 212.567 51.05 211.187 51.05 209.507C51.05 207.797 51.5 206.237 52.4 204.827C53.33 203.387 54.725 202.247 56.585 201.407C58.475 200.537 60.86 200.102 63.74 200.102C65.63 200.102 67.505 200.342 69.365 200.822C71.225 201.302 72.845 201.992 74.225 202.892L72.38 207.437C70.97 206.597 69.515 205.982 68.015 205.592C66.515 205.172 65.075 204.962 63.695 204.962C62.075 204.962 60.755 205.157 59.735 205.547C58.745 205.937 58.01 206.447 57.53 207.077C57.08 207.707 56.855 208.427 56.855 209.237C56.855 210.197 57.185 210.977 57.845 211.577C58.535 212.147 59.42 212.597 60.5 212.927C61.61 213.257 62.84 213.587 64.19 213.917C65.54 214.217 66.875 214.562 68.195 214.952C69.545 215.342 70.76 215.852 71.84 216.482C72.95 217.112 73.835 217.967 74.495 219.047C75.185 220.127 75.53 221.492 75.53 223.142C75.53 224.822 75.065 226.382 74.135 227.822C73.235 229.232 71.84 230.372 69.95 231.242C68.06 232.082 65.675 232.502 62.795 232.502Z" fill="#13112D"/>
<path d="M16.5996 232.051V200.551H21.4146L41.1696 224.806H38.7846V200.551H44.5896V232.051H39.7746L20.0196 207.796H22.4046V232.051H16.5996Z" fill="#13112D"/>
<path d="M2.23047 232.051V200.551H8.08047V232.051H2.23047Z" fill="#13112D"/>
<path d="M424.943 213.646H440.603V218.461H424.943V213.646ZM425.393 227.146H443.168V232.051H419.543V200.551H442.538V205.456H425.393V227.146Z" fill="#13112D"/>
<path d="M398.862 232.051V205.501H388.422V200.551H415.152V205.501H404.712V232.051H398.862Z" fill="#13112D"/>
<path d="M355.893 232.051L370.068 200.551H375.828L390.048 232.051H383.928L371.733 203.656H374.073L361.923 232.051H355.893ZM362.418 224.761L363.993 220.171H381.003L382.578 224.761H362.418Z" fill="#13112D"/>
<path d="M342.892 232.502C340.492 232.502 338.258 232.112 336.188 231.332C334.147 230.522 332.362 229.397 330.832 227.957C329.332 226.487 328.162 224.762 327.322 222.782C326.482 220.802 326.062 218.642 326.062 216.302C326.062 213.962 326.482 211.802 327.322 209.822C328.162 207.842 329.347 206.132 330.877 204.692C332.407 203.222 334.192 202.097 336.232 201.317C338.272 200.507 340.507 200.102 342.938 200.102C345.517 200.102 347.872 200.552 350.002 201.452C352.132 202.322 353.933 203.627 355.403 205.367L351.623 208.922C350.483 207.692 349.208 206.777 347.798 206.177C346.388 205.547 344.857 205.232 343.207 205.232C341.557 205.232 340.042 205.502 338.662 206.042C337.312 206.582 336.127 207.347 335.107 208.337C334.117 209.327 333.337 210.497 332.767 211.847C332.227 213.197 331.957 214.682 331.957 216.302C331.957 217.922 332.227 219.407 332.767 220.757C333.337 222.107 334.117 223.277 335.107 224.267C336.127 225.257 337.312 226.022 338.662 226.562C340.042 227.102 341.557 227.372 343.207 227.372C344.857 227.372 346.388 227.072 347.798 226.472C349.208 225.842 350.483 224.897 351.623 223.637L355.403 227.237C353.933 228.947 352.132 230.252 350.002 231.152C347.872 232.052 345.502 232.502 342.892 232.502Z" fill="#13112D"/>
<path d="M306.35 232.501C302.03 232.501 298.64 231.286 296.18 228.856C293.75 226.426 292.535 222.916 292.535 218.326V200.551H298.385V218.101C298.385 221.341 299.075 223.696 300.455 225.166C301.865 226.636 303.845 227.371 306.395 227.371C308.945 227.371 310.91 226.636 312.29 225.166C313.67 223.696 314.36 221.341 314.36 218.101V200.551H320.12V218.326C320.12 222.916 318.89 226.426 316.43 228.856C314 231.286 310.64 232.501 306.35 232.501Z" fill="#13112D"/>
<path d="M255.627 232.051V200.551H269.397C272.817 200.551 275.817 201.211 278.397 202.531C280.977 203.851 282.987 205.681 284.427 208.021C285.867 210.361 286.587 213.121 286.587 216.301C286.587 219.451 285.867 222.211 284.427 224.581C282.987 226.921 280.977 228.751 278.397 230.071C275.817 231.391 272.817 232.051 269.397 232.051H255.627ZM261.477 227.101H269.127C271.497 227.101 273.537 226.651 275.247 225.751C276.987 224.851 278.322 223.591 279.252 221.971C280.212 220.351 280.692 218.461 280.692 216.301C280.692 214.111 280.212 212.221 279.252 210.631C278.322 209.011 276.987 207.751 275.247 206.851C273.537 205.951 271.497 205.501 269.127 205.501H261.477V227.101Z" fill="#13112D"/>
<path d="M230.88 213.646H246.54V218.461H230.88V213.646ZM231.33 227.146H249.105V232.051H225.48V200.551H248.475V205.456H231.33V227.146Z" fill="#13112D"/>
<path d="M668.185 213.646H683.845V218.461H668.185V213.646ZM668.635 227.146H686.41V232.051H662.785V200.551H685.78V205.456H668.635V227.146Z" fill="#13112D"/>
<path d="M639.975 232.051L626.205 200.551H632.55L644.835 229.036H641.19L653.61 200.551H659.46L645.735 232.051H639.975Z" fill="#13112D"/>
<path d="M606.353 213.646H622.013V218.461H606.353V213.646ZM606.803 227.146H624.578V232.051H600.953V200.551H623.948V205.456H606.803V227.146Z" fill="#13112D"/>
<path d="M586.584 232.051V200.551H592.434V232.051H586.584Z" fill="#13112D"/>
<path d="M572.292 200.551H578.142V232.051H572.292V200.551ZM556.002 232.051H550.152V200.551H556.002V232.051ZM572.742 218.551H555.507V213.556H572.742V218.551Z" fill="#13112D"/>
<path d="M532.037 232.502C529.637 232.502 527.402 232.112 525.332 231.332C523.292 230.522 521.507 229.397 519.977 227.957C518.477 226.487 517.307 224.762 516.467 222.782C515.627 220.802 515.207 218.642 515.207 216.302C515.207 213.962 515.627 211.802 516.467 209.822C517.307 207.842 518.492 206.132 520.022 204.692C521.552 203.222 523.337 202.097 525.377 201.317C527.417 200.507 529.652 200.102 532.082 200.102C534.662 200.102 537.017 200.552 539.147 201.452C541.277 202.322 543.077 203.627 544.547 205.367L540.767 208.922C539.627 207.692 538.352 206.777 536.942 206.177C535.532 205.547 534.002 205.232 532.352 205.232C530.702 205.232 529.187 205.502 527.807 206.042C526.457 206.582 525.272 207.347 524.252 208.337C523.262 209.327 522.482 210.497 521.912 211.847C521.372 213.197 521.102 214.682 521.102 216.302C521.102 217.922 521.372 219.407 521.912 220.757C522.482 222.107 523.262 223.277 524.252 224.267C525.272 225.257 526.457 226.022 527.807 226.562C529.187 227.102 530.702 227.372 532.352 227.372C534.002 227.372 535.532 227.072 536.942 226.472C538.352 225.842 539.627 224.897 540.767 223.637L544.547 227.237C543.077 228.947 541.277 230.252 539.147 231.152C537.017 232.052 534.647 232.502 532.037 232.502Z" fill="#13112D"/>
<path d="M479.736 232.051L493.911 200.551H499.671L513.891 232.051H507.771L495.576 203.656H497.916L485.766 232.051H479.736ZM486.261 224.761L487.836 220.171H504.846L506.421 224.761H486.261Z" fill="#13112D"/>
<path d="M1335.16 149.85H1335.15C1328.74 149.85 1323.55 155.043 1323.55 161.45V161.46C1323.55 167.866 1328.74 173.06 1335.15 173.06H1335.16C1341.57 173.06 1346.76 167.866 1346.76 161.46V161.45C1346.76 155.043 1341.57 149.85 1335.16 149.85Z" fill="#5341D6"/>
</svg>
