<svg width="174" height="47" viewBox="0 0 174 47" fill="none" xmlns="http://www.w3.org/2000/svg">
<g clip-path="url(#clip0_350_40008)">
<path d="M50.6211 32.4053H63.0741V28.6297H55.0472V14.4082H50.6211V32.4053Z" fill="#2F234F"/>
<path d="M70.4516 29.8887C68.6762 29.8887 67.751 28.3282 67.751 25.9873C67.751 23.6464 68.6762 22.0606 70.4516 22.0606C72.2271 22.0606 73.1773 23.6464 73.1773 25.9873C73.1773 28.3282 72.2271 29.8887 70.4516 29.8887ZM70.4766 32.8086C74.6026 32.8086 77.3033 29.8636 77.3033 25.9873C77.3033 22.111 74.6026 19.166 70.4766 19.166C66.3757 19.166 63.625 22.111 63.625 25.9873C63.625 29.8636 66.3757 32.8086 70.4766 32.8086Z" fill="#2F234F"/>
<path d="M84.4445 36.8608C86.345 36.8608 88.0204 36.4329 89.1457 35.4261C90.1709 34.4948 90.8461 33.0852 90.8461 31.1471V19.5182H86.9451V20.9026H86.8951C86.1449 19.8202 84.9947 19.1406 83.2943 19.1406C80.1185 19.1406 77.918 21.8087 77.918 25.5843C77.918 29.5361 80.5936 31.7008 83.4693 31.7008C85.0197 31.7008 85.9949 31.0716 86.7451 30.2157H86.8451V31.4995C86.8451 33.06 86.1199 33.9662 84.3945 33.9662C83.0442 33.9662 82.369 33.3873 82.144 32.7076H78.193C78.5931 35.4009 80.9187 36.8608 84.4445 36.8608ZM84.4195 28.6552C82.8942 28.6552 81.8939 27.3966 81.8939 25.4585C81.8939 23.4952 82.8942 22.2366 84.4195 22.2366C86.1199 22.2366 87.0201 23.6965 87.0201 25.4333C87.0201 27.2456 86.1949 28.6552 84.4195 28.6552Z" fill="#2F234F"/>
<path d="M98.8677 29.8887C97.0922 29.8887 96.167 28.3282 96.167 25.9873C96.167 23.6464 97.0922 22.0606 98.8677 22.0606C100.643 22.0606 101.593 23.6464 101.593 25.9873C101.593 28.3282 100.643 29.8887 98.8677 29.8887ZM98.8927 32.8086C103.019 32.8086 105.72 29.8636 105.72 25.9873C105.72 22.111 103.019 19.166 98.8927 19.166C94.7917 19.166 92.041 22.111 92.041 25.9873C92.041 29.8636 94.7917 32.8086 98.8927 32.8086Z" fill="#2F234F"/>
<path d="M106.908 32.4053H110.984V19.5179H106.908V32.4053ZM106.908 17.7307H110.984V14.4082H106.908V17.7307Z" fill="#2F234F"/>
<path d="M112.752 36.6595H116.828V31.0716H116.878C117.678 32.1539 118.853 32.8083 120.504 32.8083C123.855 32.8083 126.08 30.1402 126.08 25.9619C126.08 22.0856 124.005 19.1406 120.604 19.1406C118.853 19.1406 117.603 19.9209 116.728 21.0788H116.653V19.5182H112.752V36.6595ZM119.454 29.6368C117.703 29.6368 116.703 28.2021 116.703 26.1129C116.703 24.0237 117.603 22.438 119.379 22.438C121.129 22.438 121.954 23.8979 121.954 26.1129C121.954 28.3028 121.004 29.6368 119.454 29.6368Z" fill="#2F234F"/>
<path d="M132.719 32.8083C136.069 32.8083 138.545 31.3484 138.545 28.5293C138.545 25.2319 135.894 24.653 133.644 24.2755C132.019 23.9734 130.568 23.8476 130.568 22.9414C130.568 22.1359 131.343 21.7584 132.344 21.7584C133.469 21.7584 134.244 22.1108 134.394 23.2686H138.145C137.945 20.7264 135.994 19.1406 132.369 19.1406C129.343 19.1406 126.842 20.5502 126.842 23.2686C126.842 26.2891 129.218 26.8932 131.443 27.2708C133.144 27.5728 134.694 27.6987 134.694 28.8565C134.694 29.6872 133.919 30.1402 132.694 30.1402C131.343 30.1402 130.493 29.511 130.343 28.2273H126.492C126.617 31.0716 128.968 32.8083 132.719 32.8083Z" fill="#2F234F"/>
<path d="M144.081 32.7826C145.857 32.7826 146.982 32.0778 147.907 30.8192H147.982V32.405H151.883V19.5176H147.807V26.7164C147.807 28.2518 146.957 29.309 145.557 29.309C144.256 29.309 143.631 28.5287 143.631 27.1191V19.5176H139.58V27.9749C139.58 30.8444 141.13 32.7826 144.081 32.7826Z" fill="#2F234F"/>
<path d="M153.656 32.4056H157.732V25.1816C157.732 23.6462 158.482 22.5638 159.758 22.5638C160.983 22.5638 161.558 23.3693 161.558 24.7537V32.4056H165.634V25.1816C165.634 23.6462 166.359 22.5638 167.66 22.5638C168.885 22.5638 169.46 23.3693 169.46 24.7537V32.4056H173.536V24.0237C173.536 21.1291 172.086 19.1406 169.185 19.1406C167.535 19.1406 166.159 19.8454 165.159 21.406H165.109C164.459 20.0216 163.184 19.1406 161.508 19.1406C159.658 19.1406 158.432 20.0216 157.632 21.3557H157.557V19.5182H153.656V32.4056Z" fill="#2F234F"/>
<path fill-rule="evenodd" clip-rule="evenodd" d="M8.96787 6.289C7.47724 7.33815 6.12931 8.5786 4.95919 9.97497C9.74086 9.52811 15.8158 10.2578 22.8687 13.8075C30.4003 17.598 36.4651 17.7262 40.6859 16.9066C40.3029 15.7395 39.8207 14.6177 39.2496 13.5513C34.418 14.0642 28.2238 13.3853 21.0049 9.75218C16.4209 7.44508 12.3802 6.4947 8.96787 6.289ZM36.4272 9.50747C32.6116 5.21623 27.0666 2.51562 20.8949 2.51562C19.0825 2.51562 17.324 2.74857 15.6475 3.1863C17.9181 3.80991 20.3301 4.72224 22.8687 5.99995C28.1539 8.65993 32.7169 9.5164 36.4272 9.50747ZM41.5883 21.0036C36.4892 22.0171 29.4478 21.809 21.0049 17.5597C13.1118 13.5872 6.82954 13.6372 2.59256 14.585C2.37386 14.6338 2.16031 14.6852 1.95192 14.7387C1.39719 15.9531 0.954391 17.2301 0.636677 18.5562C0.976013 18.4649 1.32666 18.3782 1.68845 18.2972C6.82865 17.1474 14.0913 17.1974 22.8687 21.615C30.762 25.5876 37.0442 25.5376 41.2813 24.5898C41.4264 24.5574 41.5695 24.5238 41.7101 24.4892C41.7255 24.1585 41.7332 23.8258 41.7332 23.4912C41.7332 22.6496 41.6841 21.8195 41.5883 21.0036ZM41.0297 28.9158C35.9801 29.8044 29.1438 29.4634 21.0049 25.3673C13.1118 21.3947 6.82954 21.4447 2.59256 22.3925C1.65207 22.6028 0.806027 22.859 0.0596934 23.1295C0.0576586 23.2498 0.0566406 23.3704 0.0566406 23.4912C0.0566406 35.0757 9.38626 44.4668 20.8949 44.4668C30.54 44.4668 38.6547 37.8709 41.0297 28.9158Z" fill="#6C4BFF"/>
</g>
<defs>
<clipPath id="clip0_350_40008">
<rect width="174" height="43" fill="white" transform="translate(0 2)"/>
</clipPath>
</defs>
</svg>
