<svg width="171" height="68" viewBox="0 0 171 68" fill="none" xmlns="http://www.w3.org/2000/svg">
<g filter="url(#filter0_d_513_3826)">
<path d="M161.286 8.95807L134.4 17.9287L148.646 21.0933L152.316 35.8446L161.286 8.95807Z" fill="#6C4BFF"/>
<path d="M136.263 17.8318L148.754 20.607L149.055 20.6733L149.13 20.973L152.386 34.0614L160.499 9.74631L136.263 17.8318Z" stroke="white" stroke-width="0.996253"/>
</g>
<rect x="0.71875" y="26.4277" width="139.491" height="40.7505" rx="7.97002" fill="white"/>
<path d="M20.4731 52.8447L24.0915 41.3679H26.9049L30.5233 52.8447H28.5467L25.2631 42.5475H25.6935L22.4497 52.8447H20.4731ZM22.4895 50.3581V48.5648H28.5149V50.3581H22.4895ZM35.1921 53.0918C34.5545 53.0918 34.0285 52.9855 33.614 52.773C33.1996 52.5605 32.8702 52.2895 32.6258 51.9601C32.3813 51.6306 32.2007 51.2799 32.0838 50.908C31.9669 50.5361 31.8899 50.1854 31.8527 49.856C31.8208 49.5212 31.8049 49.2502 31.8049 49.043V44.2371H33.7495V48.3815C33.7495 48.6472 33.7681 48.9474 33.8053 49.2821C33.8425 49.6116 33.9275 49.9304 34.0604 50.2385C34.1985 50.5414 34.4004 50.7911 34.6661 50.9877C34.9371 51.1843 35.301 51.2826 35.758 51.2826C36.0024 51.2826 36.2442 51.2428 36.4833 51.1631C36.7224 51.0834 36.9375 50.9479 37.1288 50.7566C37.3254 50.56 37.4822 50.2917 37.5991 49.9516C37.716 49.6116 37.7744 49.1812 37.7744 48.6605L38.9141 49.1466C38.9141 49.8799 38.7707 50.544 38.4837 51.1391C38.2021 51.7342 37.785 52.2098 37.2324 52.5658C36.6798 52.9165 35.9997 53.0918 35.1921 53.0918ZM38.0055 52.8447V50.1748H37.7744V44.2371H39.7031V52.8447H38.0055ZM46.9874 52.8447C46.4188 52.951 45.8609 52.9962 45.3137 52.9802C44.7717 52.9696 44.2855 52.8713 43.8552 52.6853C43.4248 52.494 43.098 52.1938 42.8748 51.7847C42.6782 51.4128 42.5746 51.0329 42.564 50.645C42.5534 50.2571 42.5481 49.8188 42.5481 49.3299V41.8461H44.4609V49.2184C44.4609 49.5637 44.4635 49.8666 44.4688 50.1269C44.4795 50.3873 44.5353 50.5998 44.6362 50.7646C44.8275 51.0834 45.133 51.2613 45.5528 51.2985C45.9725 51.3357 46.4507 51.3145 46.9874 51.2348V52.8447ZM40.9859 45.7434V44.2371H46.9874V45.7434H40.9859ZM52.2041 53.0838C51.3434 53.0838 50.5915 52.8899 49.9486 52.502C49.3057 52.1141 48.8062 51.5801 48.4502 50.9C48.0996 50.2146 47.9242 49.4282 47.9242 48.5409C47.9242 47.6376 48.1049 46.846 48.4662 46.1658C48.8275 45.4857 49.3296 44.9544 49.9725 44.5718C50.6154 44.1893 51.3593 43.998 52.2041 43.998C53.0702 43.998 53.8247 44.1919 54.4676 44.5798C55.1105 44.9677 55.61 45.5043 55.966 46.1898C56.322 46.8699 56.5 47.6536 56.5 48.5409C56.5 49.4336 56.3193 50.2226 55.958 50.908C55.602 51.5881 55.1026 52.1221 54.4596 52.51C53.8167 52.8925 53.0649 53.0838 52.2041 53.0838ZM52.2041 51.2826C52.9692 51.2826 53.5378 51.0276 53.9097 50.5175C54.2816 50.0074 54.4676 49.3485 54.4676 48.5409C54.4676 47.7067 54.279 47.0425 53.9017 46.5484C53.5245 46.049 52.9586 45.7992 52.2041 45.7992C51.6887 45.7992 51.2637 45.9161 50.9289 46.1499C50.5995 46.3784 50.3551 46.6998 50.1957 47.1143C50.0363 47.5234 49.9566 47.999 49.9566 48.5409C49.9566 49.3751 50.1452 50.0419 50.5225 50.5414C50.905 51.0355 51.4656 51.2826 52.2041 51.2826ZM68.5931 52.8447V47.6164C68.5931 47.0266 68.447 46.567 68.1548 46.2376C67.8625 45.9028 67.4667 45.7355 66.9672 45.7355C66.659 45.7355 66.3828 45.8072 66.1383 45.9507C65.8939 46.0888 65.7 46.296 65.5565 46.5723C65.4131 46.8433 65.3413 47.1674 65.3413 47.5447L64.4885 47.0425C64.4832 46.4475 64.6161 45.9241 64.887 45.4725C65.1633 45.0155 65.5353 44.6595 66.0028 44.4045C66.4704 44.1494 66.9911 44.0219 67.565 44.0219C68.5161 44.0219 69.244 44.3088 69.7488 44.8827C70.2588 45.4512 70.5139 46.2004 70.5139 47.1302V52.8447H68.5931ZM58.24 52.8447V44.2371H59.9377V46.9071H60.1768V52.8447H58.24ZM63.4285 52.8447V47.6403C63.4285 47.0399 63.2824 46.5723 62.9902 46.2376C62.6979 45.9028 62.2994 45.7355 61.7947 45.7355C61.3058 45.7355 60.9127 45.9028 60.6151 46.2376C60.3229 46.5723 60.1768 47.008 60.1768 47.5447L59.316 46.9708C59.316 46.4129 59.4541 45.9108 59.7304 45.4645C60.0067 45.0182 60.3787 44.6675 60.8462 44.4124C61.3191 44.1521 61.8478 44.0219 62.4323 44.0219C63.0752 44.0219 63.6118 44.1601 64.0422 44.4364C64.4779 44.7073 64.802 45.0793 65.0146 45.5522C65.2324 46.0197 65.3413 46.5484 65.3413 47.1382V52.8447H63.4285ZM74.9996 53.0838C74.378 53.0838 73.852 52.9669 73.4216 52.7331C72.9912 52.494 72.6644 52.1779 72.4413 51.7847C72.2234 51.3915 72.1145 50.9585 72.1145 50.4856C72.1145 50.0712 72.1836 49.6992 72.3217 49.3698C72.4599 49.0351 72.6724 48.7481 72.9593 48.509C73.2462 48.2646 73.6182 48.0654 74.0751 47.9113C74.4205 47.7997 74.8243 47.6987 75.2866 47.6084C75.7541 47.5181 76.2589 47.4357 76.8009 47.3614C77.3481 47.2817 77.9193 47.1966 78.5144 47.1063L77.829 47.4968C77.8343 46.9017 77.7015 46.4634 77.4305 46.1818C77.1595 45.9002 76.7026 45.7594 76.0597 45.7594C75.6718 45.7594 75.2972 45.8497 74.9359 46.0304C74.5746 46.211 74.3222 46.5218 74.1787 46.9628L72.4253 46.4129C72.6379 45.685 73.0417 45.1005 73.6368 44.6595C74.2372 44.2185 75.0448 43.998 76.0597 43.998C76.8248 43.998 77.4969 44.1229 78.0761 44.3726C78.6605 44.6223 79.0936 45.0314 79.3752 45.6C79.5293 45.9028 79.6223 46.2137 79.6541 46.5325C79.686 46.846 79.702 47.1887 79.702 47.5606V52.8447H78.0203V50.9797L78.2992 51.2826C77.9114 51.9043 77.4571 52.3612 76.9364 52.6534C76.421 52.9404 75.7754 53.0838 74.9996 53.0838ZM75.3822 51.5536C75.8179 51.5536 76.1898 51.4765 76.498 51.3225C76.8062 51.1684 77.0506 50.9797 77.2312 50.7566C77.4172 50.5334 77.5421 50.3235 77.6058 50.1269C77.7068 49.8825 77.7626 49.6036 77.7732 49.2901C77.7891 48.9713 77.7971 48.7136 77.7971 48.517L78.3869 48.6923C77.8077 48.7827 77.3109 48.8624 76.8965 48.9314C76.4821 49.0005 76.1261 49.0669 75.8285 49.1307C75.531 49.1891 75.268 49.2556 75.0395 49.3299C74.8163 49.4096 74.6277 49.5026 74.4736 49.6089C74.3195 49.7152 74.2 49.8374 74.115 49.9755C74.0353 50.1137 73.9954 50.2757 73.9954 50.4617C73.9954 50.6742 74.0485 50.8628 74.1548 51.0276C74.2611 51.187 74.4152 51.3145 74.6171 51.4101C74.8243 51.5058 75.0793 51.5536 75.3822 51.5536ZM86.8219 52.8447C86.2534 52.951 85.6955 52.9962 85.1482 52.9802C84.6063 52.9696 84.1201 52.8713 83.6897 52.6853C83.2593 52.494 82.9325 52.1938 82.7094 51.7847C82.5128 51.4128 82.4092 51.0329 82.3986 50.645C82.3879 50.2571 82.3826 49.8188 82.3826 49.3299V41.8461H84.2954V49.2184C84.2954 49.5637 84.2981 49.8666 84.3034 50.1269C84.314 50.3873 84.3698 50.5998 84.4708 50.7646C84.662 51.0834 84.9676 51.2613 85.3873 51.2985C85.8071 51.3357 86.2853 51.3145 86.8219 51.2348V52.8447ZM80.8205 45.7434V44.2371H86.8219V45.7434H80.8205ZM88.8322 42.93V41.1686H90.753V42.93H88.8322ZM88.8322 52.8447V44.2371H90.753V52.8447H88.8322ZM96.9421 53.0838C96.0813 53.0838 95.3295 52.8899 94.6866 52.502C94.0437 52.1141 93.5442 51.5801 93.1882 50.9C92.8375 50.2146 92.6622 49.4282 92.6622 48.5409C92.6622 47.6376 92.8429 46.846 93.2042 46.1658C93.5655 45.4857 94.0676 44.9544 94.7105 44.5718C95.3534 44.1893 96.0973 43.998 96.9421 43.998C97.8082 43.998 98.5627 44.1919 99.2056 44.5798C99.8485 44.9677 100.348 45.5043 100.704 46.1898C101.06 46.8699 101.238 47.6536 101.238 48.5409C101.238 49.4336 101.057 50.2226 100.696 50.908C100.34 51.5881 99.8405 52.1221 99.1976 52.51C98.5547 52.8925 97.8029 53.0838 96.9421 53.0838ZM96.9421 51.2826C97.7072 51.2826 98.2758 51.0276 98.6477 50.5175C99.0196 50.0074 99.2056 49.3485 99.2056 48.5409C99.2056 47.7067 99.017 47.0425 98.6397 46.5484C98.2625 46.049 97.6966 45.7992 96.9421 45.7992C96.4267 45.7992 96.0016 45.9161 95.6669 46.1499C95.3375 46.3784 95.0931 46.6998 94.9337 47.1143C94.7743 47.5234 94.6946 47.999 94.6946 48.5409C94.6946 49.3751 94.8832 50.0419 95.2604 50.5414C95.643 51.0355 96.2036 51.2826 96.9421 51.2826ZM108.948 52.8447V48.7003C108.948 48.4293 108.929 48.1291 108.892 47.7997C108.855 47.4703 108.767 47.1541 108.629 46.8513C108.496 46.5431 108.294 46.2907 108.023 46.0941C107.757 45.8975 107.396 45.7992 106.939 45.7992C106.695 45.7992 106.453 45.8391 106.214 45.9188C105.975 45.9985 105.757 46.1366 105.56 46.3332C105.369 46.5245 105.215 46.7902 105.098 47.1302C104.981 47.465 104.923 47.8953 104.923 48.4214L103.783 47.9352C103.783 47.2019 103.924 46.5378 104.205 45.9427C104.492 45.3476 104.912 44.8747 105.465 44.524C106.017 44.168 106.697 43.99 107.505 43.99C108.143 43.99 108.669 44.0963 109.083 44.3088C109.498 44.5214 109.827 44.7923 110.071 45.1218C110.316 45.4512 110.496 45.8019 110.613 46.1738C110.73 46.5458 110.805 46.8991 110.836 47.2338C110.874 47.5633 110.892 47.8316 110.892 48.0388V52.8447H108.948ZM102.978 52.8447V44.2371H104.692V46.9071H104.923V52.8447H102.978Z" fill="#101725" fill-opacity="0.7"/>
<defs>
<filter id="filter0_d_513_3826" x="130.415" y="6.9655" width="34.8567" height="34.8567" filterUnits="userSpaceOnUse" color-interpolation-filters="sRGB">
<feFlood flood-opacity="0" result="BackgroundImageFix"/>
<feColorMatrix in="SourceAlpha" type="matrix" values="0 0 0 0 0 0 0 0 0 0 0 0 0 0 0 0 0 0 127 0" result="hardAlpha"/>
<feOffset dy="1.99251"/>
<feGaussianBlur stdDeviation="1.99251"/>
<feComposite in2="hardAlpha" operator="out"/>
<feColorMatrix type="matrix" values="0 0 0 0 0 0 0 0 0 0 0 0 0 0 0 0 0 0 0.25 0"/>
<feBlend mode="normal" in2="BackgroundImageFix" result="effect1_dropShadow_513_3826"/>
<feBlend mode="normal" in="SourceGraphic" in2="effect1_dropShadow_513_3826" result="shape"/>
</filter>
</defs>
</svg>
