<svg width="166" height="68" viewBox="0 0 166 68" fill="none" xmlns="http://www.w3.org/2000/svg">
<g filter="url(#filter0_d_513_3835)">
<path d="M8.95795 8.95807L35.8445 17.9287L21.5979 21.0933L17.9286 35.8446L8.95795 8.95807Z" fill="#21C48C"/>
<path d="M33.9812 17.8318L21.4901 20.607L21.189 20.6733L21.1145 20.973L17.8579 34.0614L9.74551 9.74631L33.9812 17.8318Z" stroke="white" stroke-width="0.996253"/>
</g>
<rect x="25.7207" y="26.4277" width="139.491" height="40.7505" rx="7.97002" fill="#F3F2FA"/>
<path d="M46.4315 52.8447V41.3679H48.3522V51.0435H53.4212V52.8447H46.4315ZM54.9307 42.93V41.1686H56.8515V42.93H54.9307ZM54.9307 52.8447V44.2371H56.8515V52.8447H54.9307ZM61.5662 52.8447L58.4419 44.2371H60.3627L62.5305 50.4776L64.6904 44.2371H66.6191L63.4949 52.8447H61.5662ZM71.6515 53.0838C70.7801 53.0838 70.015 52.8952 69.3561 52.518C68.6972 52.1407 68.1819 51.6173 67.8099 50.9479C67.4433 50.2784 67.26 49.5079 67.26 48.6366C67.26 47.6961 67.4406 46.8805 67.802 46.1898C68.1633 45.4937 68.6654 44.9544 69.3083 44.5718C69.9512 44.1893 70.6951 43.998 71.5399 43.998C72.4325 43.998 73.1897 44.2079 73.8113 44.6276C74.4383 45.0421 74.9032 45.6292 75.2061 46.389C75.509 47.1488 75.6232 48.0441 75.5488 49.0749H73.644V48.3735C73.6387 47.4384 73.474 46.7556 73.1498 46.3252C72.8257 45.8949 72.3156 45.6797 71.6196 45.6797C70.8332 45.6797 70.2487 45.9241 69.8662 46.4129C69.4836 46.8964 69.2923 47.6058 69.2923 48.5409C69.2923 49.4123 69.4836 50.0871 69.8662 50.5653C70.2487 51.0435 70.8066 51.2826 71.5399 51.2826C72.0128 51.2826 72.4193 51.179 72.7593 50.9718C73.1047 50.7592 73.3703 50.4537 73.5563 50.0552L75.4532 50.6291C75.1237 51.4048 74.6137 52.0079 73.9229 52.4383C73.2375 52.8686 72.4804 53.0838 71.6515 53.0838ZM68.6866 49.0749V47.6244H74.6084V49.0749H68.6866ZM80.6776 52.8447V41.3679H82.5984V51.0435H87.6674V52.8447H80.6776ZM92.9308 53.0838C92.0594 53.0838 91.2943 52.8952 90.6354 52.518C89.9766 52.1407 89.4612 51.6173 89.0893 50.9479C88.7226 50.2784 88.5393 49.5079 88.5393 48.6366C88.5393 47.6961 88.72 46.8805 89.0813 46.1898C89.4426 45.4937 89.9447 44.9544 90.5876 44.5718C91.2305 44.1893 91.9744 43.998 92.8192 43.998C93.7119 43.998 94.469 44.2079 95.0907 44.6276C95.7177 45.0421 96.1826 45.6292 96.4854 46.389C96.7883 47.1488 96.9025 48.0441 96.8282 49.0749H94.9233V48.3735C94.918 47.4384 94.7533 46.7556 94.4292 46.3252C94.1051 45.8949 93.595 45.6797 92.8989 45.6797C92.1126 45.6797 91.5281 45.9241 91.1455 46.4129C90.763 46.8964 90.5717 47.6058 90.5717 48.5409C90.5717 49.4123 90.763 50.0871 91.1455 50.5653C91.5281 51.0435 92.086 51.2826 92.8192 51.2826C93.2921 51.2826 93.6986 51.179 94.0386 50.9718C94.384 50.7592 94.6497 50.4537 94.8356 50.0552L96.7325 50.6291C96.4031 51.4048 95.893 52.0079 95.2023 52.4383C94.5168 52.8686 93.7597 53.0838 92.9308 53.0838ZM89.966 49.0749V47.6244H95.8877V49.0749H89.966ZM100.858 53.0838C100.236 53.0838 99.7101 52.9669 99.2797 52.7331C98.8493 52.494 98.5225 52.1779 98.2994 51.7847C98.0815 51.3915 97.9726 50.9585 97.9726 50.4856C97.9726 50.0712 98.0417 49.6992 98.1798 49.3698C98.318 49.0351 98.5305 48.7481 98.8174 48.509C99.1043 48.2646 99.4763 48.0654 99.9332 47.9113C100.279 47.7997 100.682 47.6987 101.145 47.6084C101.612 47.5181 102.117 47.4357 102.659 47.3614C103.206 47.2817 103.777 47.1966 104.373 47.1063L103.687 47.4968C103.692 46.9017 103.56 46.4634 103.289 46.1818C103.018 45.9002 102.561 45.7594 101.918 45.7594C101.53 45.7594 101.155 45.8497 100.794 46.0304C100.433 46.211 100.18 46.5218 100.037 46.9628L98.2834 46.4129C98.496 45.685 98.8998 45.1005 99.4949 44.6595C100.095 44.2185 100.903 43.998 101.918 43.998C102.683 43.998 103.355 44.1229 103.934 44.3726C104.519 44.6223 104.952 45.0314 105.233 45.6C105.387 45.9028 105.48 46.2137 105.512 46.5325C105.544 46.846 105.56 47.1887 105.56 47.5606V52.8447H103.878V50.9797L104.157 51.2826C103.769 51.9043 103.315 52.3612 102.794 52.6534C102.279 52.9404 101.633 53.0838 100.858 53.0838ZM101.24 51.5536C101.676 51.5536 102.048 51.4765 102.356 51.3225C102.664 51.1684 102.909 50.9797 103.089 50.7566C103.275 50.5334 103.4 50.3235 103.464 50.1269C103.565 49.8825 103.621 49.6036 103.631 49.2901C103.647 48.9713 103.655 48.7136 103.655 48.517L104.245 48.6923C103.666 48.7827 103.169 48.8624 102.755 48.9314C102.34 49.0005 101.984 49.0669 101.687 49.1307C101.389 49.1891 101.126 49.2556 100.898 49.3299C100.674 49.4096 100.486 49.5026 100.332 49.6089C100.178 49.7152 100.058 49.8374 99.9731 49.9755C99.8934 50.1137 99.8535 50.2757 99.8535 50.4617C99.8535 50.6742 99.9067 50.8628 100.013 51.0276C100.119 51.187 100.273 51.3145 100.475 51.4101C100.682 51.5058 100.937 51.5536 101.24 51.5536ZM107.635 52.8447V44.2371H109.333V46.3332L109.125 46.0622C109.232 45.7753 109.372 45.515 109.548 45.2812C109.728 45.0421 109.944 44.8455 110.193 44.6914C110.406 44.5479 110.64 44.4364 110.895 44.3567C111.155 44.2716 111.421 44.2212 111.692 44.2052C111.963 44.184 112.226 44.1946 112.481 44.2371V46.0304C112.226 45.956 111.931 45.9321 111.596 45.9586C111.267 45.9852 110.969 46.0782 110.703 46.2376C110.438 46.381 110.22 46.5643 110.05 46.7875C109.885 47.0107 109.763 47.2657 109.683 47.5526C109.604 47.8342 109.564 48.1398 109.564 48.4692V52.8447H107.635ZM119.955 52.8447V48.7003C119.955 48.4293 119.937 48.1291 119.9 47.7997C119.862 47.4703 119.775 47.1541 119.636 46.8513C119.504 46.5431 119.302 46.2907 119.031 46.0941C118.765 45.8975 118.404 45.7992 117.947 45.7992C117.702 45.7992 117.461 45.8391 117.222 45.9188C116.982 45.9985 116.765 46.1366 116.568 46.3332C116.377 46.5245 116.223 46.7902 116.106 47.1302C115.989 47.465 115.93 47.8953 115.93 48.4214L114.791 47.9352C114.791 47.2019 114.932 46.5378 115.213 45.9427C115.5 45.3476 115.92 44.8747 116.472 44.524C117.025 44.168 117.705 43.99 118.513 43.99C119.15 43.99 119.676 44.0963 120.091 44.3088C120.505 44.5214 120.835 44.7923 121.079 45.1218C121.323 45.4512 121.504 45.8019 121.621 46.1738C121.738 46.5458 121.812 46.8991 121.844 47.2338C121.881 47.5633 121.9 47.8316 121.9 48.0388V52.8447H119.955ZM113.986 52.8447V44.2371H115.699V46.9071H115.93V52.8447H113.986ZM124.139 42.93V41.1686H126.06V42.93H124.139ZM124.139 52.8447V44.2371H126.06V52.8447H124.139ZM134.401 52.8447V48.7003C134.401 48.4293 134.382 48.1291 134.345 47.7997C134.308 47.4703 134.22 47.1541 134.082 46.8513C133.949 46.5431 133.747 46.2907 133.476 46.0941C133.211 45.8975 132.849 45.7992 132.393 45.7992C132.148 45.7992 131.906 45.8391 131.667 45.9188C131.428 45.9985 131.21 46.1366 131.014 46.3332C130.822 46.5245 130.668 46.7902 130.551 47.1302C130.435 47.465 130.376 47.8953 130.376 48.4214L129.236 47.9352C129.236 47.2019 129.377 46.5378 129.659 45.9427C129.946 45.3476 130.365 44.8747 130.918 44.524C131.471 44.168 132.151 43.99 132.958 43.99C133.596 43.99 134.122 44.0963 134.536 44.3088C134.951 44.5214 135.28 44.7923 135.525 45.1218C135.769 45.4512 135.95 45.8019 136.067 46.1738C136.184 46.5458 136.258 46.8991 136.29 47.2338C136.327 47.5633 136.346 47.8316 136.346 48.0388V52.8447H134.401ZM128.431 52.8447V44.2371H130.145V46.9071H130.376V52.8447H128.431ZM142.044 56.9094C141.566 56.9094 141.106 56.8351 140.665 56.6863C140.229 56.5375 139.836 56.3223 139.485 56.0407C139.135 55.7644 138.848 55.4297 138.625 55.0365L140.394 54.1598C140.559 54.4733 140.79 54.7044 141.087 54.8532C141.39 55.0073 141.712 55.0843 142.052 55.0843C142.45 55.0843 142.806 55.0126 143.12 54.8691C143.433 54.731 143.675 54.5237 143.845 54.2475C144.02 53.9765 144.103 53.6364 144.092 53.2273V50.7805H144.331V44.2371H146.013V53.2592C146.013 53.477 146.002 53.6842 145.981 53.8808C145.965 54.0827 145.936 54.2793 145.893 54.4706C145.766 55.0285 145.521 55.4855 145.16 55.8415C144.799 56.2028 144.35 56.4711 143.813 56.6464C143.282 56.8218 142.692 56.9094 142.044 56.9094ZM141.876 53.0838C141.085 53.0838 140.394 52.8846 139.804 52.4861C139.214 52.0876 138.758 51.5456 138.433 50.8602C138.109 50.1748 137.947 49.4017 137.947 48.5409C137.947 47.6695 138.109 46.8938 138.433 46.2137C138.763 45.5282 139.228 44.9889 139.828 44.5958C140.429 44.1973 141.135 43.998 141.948 43.998C142.766 43.998 143.452 44.1973 144.004 44.5958C144.562 44.9889 144.985 45.5282 145.272 46.2137C145.559 46.8991 145.702 47.6748 145.702 48.5409C145.702 49.3964 145.559 50.1695 145.272 50.8602C144.985 51.5456 144.557 52.0876 143.989 52.4861C143.42 52.8846 142.716 53.0838 141.876 53.0838ZM142.171 51.3623C142.687 51.3623 143.101 51.2454 143.415 51.0116C143.733 50.7725 143.965 50.4404 144.108 50.0154C144.257 49.5903 144.331 49.0988 144.331 48.5409C144.331 47.9777 144.257 47.4862 144.108 47.0665C143.965 46.6414 143.739 46.312 143.431 46.0782C143.122 45.8391 142.724 45.7195 142.235 45.7195C141.72 45.7195 141.295 45.847 140.96 46.1021C140.625 46.3518 140.378 46.6919 140.219 47.1222C140.059 47.5473 139.98 48.0202 139.98 48.5409C139.98 49.0669 140.057 49.5451 140.211 49.9755C140.37 50.4006 140.612 50.738 140.936 50.9877C141.26 51.2374 141.672 51.3623 142.171 51.3623Z" fill="#101725" fill-opacity="0.7"/>
<defs>
<filter id="filter0_d_513_3835" x="4.97202" y="6.9655" width="34.8567" height="34.8567" filterUnits="userSpaceOnUse" color-interpolation-filters="sRGB">
<feFlood flood-opacity="0" result="BackgroundImageFix"/>
<feColorMatrix in="SourceAlpha" type="matrix" values="0 0 0 0 0 0 0 0 0 0 0 0 0 0 0 0 0 0 127 0" result="hardAlpha"/>
<feOffset dy="1.99251"/>
<feGaussianBlur stdDeviation="1.99251"/>
<feComposite in2="hardAlpha" operator="out"/>
<feColorMatrix type="matrix" values="0 0 0 0 0 0 0 0 0 0 0 0 0 0 0 0 0 0 0.25 0"/>
<feBlend mode="normal" in2="BackgroundImageFix" result="effect1_dropShadow_513_3835"/>
<feBlend mode="normal" in="SourceGraphic" in2="effect1_dropShadow_513_3835" result="shape"/>
</filter>
</defs>
</svg>
