<svg width="37" height="36" viewBox="0 0 37 36" fill="none" xmlns="http://www.w3.org/2000/svg">
<g opacity="0.3">
<path d="M12.3828 17.1152C11.9686 17.1152 11.6328 17.451 11.6328 17.8652C11.6328 18.2794 11.9686 18.6152 12.3828 18.6152L12.3828 17.1152ZM25.3389 18.3956C25.6318 18.1027 25.6318 17.6278 25.3389 17.3349L20.566 12.5619C20.2731 12.269 19.7982 12.269 19.5053 12.5619C19.2124 12.8548 19.2124 13.3297 19.5053 13.6226L23.7479 17.8652L19.5053 22.1079C19.2124 22.4008 19.2124 22.8756 19.5053 23.1685C19.7982 23.4614 20.2731 23.4614 20.566 23.1685L25.3389 18.3956ZM12.3828 17.8652L12.3828 18.6152L24.8086 18.6152L24.8086 17.8652L24.8086 17.1152L12.3828 17.1152L12.3828 17.8652Z" fill="black"/>
<circle cx="18.5957" cy="17.8652" r="17.3652" stroke="#101725"/>
</g>
</svg>
