<svg width="36" height="36" viewBox="0 0 36 36" fill="none" xmlns="http://www.w3.org/2000/svg">
<g opacity="0.3">
<path d="M24.0781 17.1152C24.4923 17.1152 24.8281 17.451 24.8281 17.8652C24.8281 18.2794 24.4923 18.6152 24.0781 18.6152L24.0781 17.1152ZM11.122 18.3956C10.8291 18.1027 10.8291 17.6278 11.122 17.3349L15.895 12.5619C16.1879 12.269 16.6628 12.269 16.9556 12.5619C17.2485 12.8548 17.2485 13.3297 16.9556 13.6226L12.713 17.8652L16.9556 22.1079C17.2485 22.4008 17.2485 22.8756 16.9556 23.1685C16.6628 23.4614 16.1879 23.4614 15.895 23.1685L11.122 18.3956ZM24.0781 17.8652L24.0781 18.6152L11.6523 18.6152L11.6523 17.8652L11.6523 17.1152L24.0781 17.1152L24.0781 17.8652Z" fill="black"/>
<circle cx="17.8652" cy="17.8652" r="17.3652" transform="matrix(-1 0 0 1 35.7305 0)" stroke="#101725"/>
</g>
</svg>
