<svg width="116" height="27" viewBox="0 0 116 27" fill="none" xmlns="http://www.w3.org/2000/svg">
<g opacity="0.3">
<path d="M11.3714 7.66504L10.7848 9.19156C10.0156 11.1932 9.63099 12.1941 8.87281 12.9242C8.11462 13.6543 7.07528 14.0246 4.99661 14.7654L3.41138 15.3302L4.99661 15.895C7.07528 16.6358 8.11462 17.0061 8.87281 17.7362C9.63099 18.4663 10.0156 19.4672 10.7848 21.4688L11.3714 22.9954L11.9579 21.4688C12.7272 19.4672 13.1117 18.4663 13.8699 17.7362C14.6281 17.0061 15.6675 16.6358 17.746 15.895L19.3313 15.3302L17.746 14.7654C15.6675 14.0246 14.6281 13.6543 13.8699 12.9242C13.1117 12.1941 12.7272 11.1932 11.9579 9.19156L11.3714 7.66504Z" stroke="white" stroke-width="1.51619" stroke-linejoin="round"/>
<path d="M20.4685 3.28516L20.2171 3.93938C19.8875 4.79724 19.7227 5.22618 19.3977 5.53907C19.0728 5.85198 18.6274 6.0107 17.7366 6.32814L17.0571 6.57022L17.7366 6.81231C18.6274 7.12975 19.0728 7.28847 19.3977 7.60137C19.7227 7.91427 19.8875 8.34321 20.2171 9.20107L20.4685 9.85529L20.72 9.20107C21.0496 8.34321 21.2144 7.91427 21.5394 7.60136C21.8643 7.28847 22.3097 7.12975 23.2005 6.81231L23.88 6.57022L23.2005 6.32814C22.3097 6.0107 21.8643 5.85198 21.5394 5.53907C21.2144 5.22618 21.0496 4.79724 20.72 3.93938L20.4685 3.28516Z" stroke="white" stroke-width="1.51619" stroke-linejoin="round"/>
<path d="M37.537 18.1406H33.3675V6.3787H37.5715C38.7545 6.3787 39.773 6.61417 40.6268 7.08511C41.4806 7.55221 42.1372 8.22416 42.5967 9.10094C43.06 9.97773 43.2916 11.0268 43.2916 12.2482C43.2916 13.4734 43.06 14.5263 42.5967 15.4069C42.1372 16.2875 41.4768 16.9633 40.6153 17.4342C39.7577 17.9052 38.7316 18.1406 37.537 18.1406ZM35.8543 16.0099H37.4336C38.1687 16.0099 38.7871 15.8797 39.2887 15.6194C39.7941 15.3552 40.1731 14.9474 40.4258 14.3961C40.6823 13.8409 40.8106 13.125 40.8106 12.2482C40.8106 11.379 40.6823 10.6688 40.4258 10.1175C40.1731 9.56614 39.796 9.16029 39.2944 8.89993C38.7928 8.63958 38.1745 8.5094 37.4394 8.5094H35.8543V16.0099ZM49.0735 18.3129C48.1814 18.3129 47.4099 18.1234 46.759 17.7443C46.112 17.3615 45.6123 16.8293 45.2601 16.1478C44.9078 15.4624 44.7317 14.6679 44.7317 13.7644C44.7317 12.8531 44.9078 12.0567 45.2601 11.3752C45.6123 10.6899 46.112 10.1577 46.759 9.77863C47.4099 9.39576 48.1814 9.20432 49.0735 9.20432C49.9656 9.20432 50.7352 9.39576 51.3822 9.77863C52.0331 10.1577 52.5347 10.6899 52.8869 11.3752C53.2392 12.0567 53.4153 12.8531 53.4153 13.7644C53.4153 14.6679 53.2392 15.4624 52.8869 16.1478C52.5347 16.8293 52.0331 17.3615 51.3822 17.7443C50.7352 18.1234 49.9656 18.3129 49.0735 18.3129ZM49.085 16.4177C49.4908 16.4177 49.8297 16.3028 50.1015 16.0731C50.3734 15.8395 50.5782 15.5218 50.716 15.1197C50.8577 14.7177 50.9285 14.2602 50.9285 13.7471C50.9285 13.2341 50.8577 12.7765 50.716 12.3745C50.5782 11.9725 50.3734 11.6547 50.1015 11.4212C49.8297 11.1876 49.4908 11.0708 49.085 11.0708C48.6753 11.0708 48.3307 11.1876 48.0512 11.4212C47.7756 11.6547 47.5669 11.9725 47.4252 12.3745C47.2874 12.7765 47.2185 13.2341 47.2185 13.7471C47.2185 14.2602 47.2874 14.7177 47.4252 15.1197C47.5669 15.5218 47.7756 15.8395 48.0512 16.0731C48.3307 16.3028 48.6753 16.4177 49.085 16.4177ZM55.0062 18.1406V9.31918H57.3379V10.8756H57.4412C57.625 10.3587 57.9313 9.95093 58.3601 9.65228C58.789 9.35364 59.302 9.20432 59.8993 9.20432C60.5042 9.20432 61.0192 9.35555 61.4442 9.65803C61.8692 9.95667 62.1525 10.3625 62.2942 10.8756H62.3861C62.566 10.3702 62.8915 9.96624 63.3624 9.66377C63.8372 9.35747 64.3981 9.20432 65.0451 9.20432C65.8683 9.20432 66.5364 9.46659 67.0495 9.99113C67.5664 10.5118 67.8248 11.2508 67.8248 12.208V18.1406H65.384V12.6904C65.384 12.2003 65.2538 11.8328 64.9935 11.5877C64.7331 11.3427 64.4077 11.2202 64.0171 11.2202C63.573 11.2202 63.2265 11.3618 62.9776 11.6451C62.7288 11.9246 62.6043 12.2941 62.6043 12.7536V18.1406H60.2324V12.6387C60.2324 12.2061 60.108 11.8615 59.8591 11.6049C59.6141 11.3484 59.2905 11.2202 58.8885 11.2202C58.6167 11.2202 58.3716 11.2891 58.1534 11.4269C57.939 11.5609 57.7686 11.7504 57.6423 11.9955C57.5159 12.2367 57.4527 12.52 57.4527 12.8455V18.1406H55.0062ZM69.7574 18.1406V9.31918H72.204V18.1406H69.7574ZM70.9864 8.18204C70.6227 8.18204 70.3106 8.06144 70.0503 7.82023C69.7938 7.57519 69.6655 7.28229 69.6655 6.94153C69.6655 6.6046 69.7938 6.31553 70.0503 6.07432C70.3106 5.82927 70.6227 5.70675 70.9864 5.70675C71.3501 5.70675 71.6603 5.82927 71.9168 6.07432C72.1772 6.31553 72.3073 6.6046 72.3073 6.94153C72.3073 7.28229 72.1772 7.57519 71.9168 7.82023C71.6603 8.06144 71.3501 8.18204 70.9864 8.18204ZM78.184 18.3129C77.2766 18.3129 76.4955 18.1291 75.8408 17.7616C75.1899 17.3902 74.6883 16.8657 74.3361 16.188C73.9838 15.5064 73.8077 14.7005 73.8077 13.7701C73.8077 12.8627 73.9838 12.0663 74.3361 11.381C74.6883 10.6956 75.1842 10.1615 75.8236 9.77863C76.4668 9.39576 77.2211 9.20432 78.0863 9.20432C78.6683 9.20432 79.2101 9.29812 79.7117 9.48573C80.217 9.66951 80.6574 9.9471 81.0326 10.3185C81.4116 10.6899 81.7064 11.157 81.917 11.7198C82.1276 12.2788 82.2329 12.9335 82.2329 13.684V14.3559H74.7841V12.8397H79.9299C79.9299 12.4875 79.8533 12.1754 79.7002 11.9036C79.547 11.6317 79.3345 11.4193 79.0627 11.2661C78.7947 11.1091 78.4826 11.0306 78.1266 11.0306C77.7552 11.0306 77.4259 11.1168 77.1387 11.2891C76.8554 11.4575 76.6333 11.6853 76.4725 11.9725C76.3117 12.2558 76.2294 12.5717 76.2256 12.9201V14.3616C76.2256 14.7981 76.306 15.1753 76.4668 15.493C76.6314 15.8108 76.8631 16.0559 77.1617 16.2282C77.4603 16.4005 77.8145 16.4866 78.2242 16.4866C78.496 16.4866 78.7449 16.4483 78.9708 16.3717C79.1967 16.2952 79.39 16.1803 79.5508 16.0272C79.7117 15.874 79.8342 15.6864 79.9184 15.4643L82.1812 15.6136C82.0663 16.1573 81.8309 16.6321 81.4748 17.0379C81.1225 17.44 80.6669 17.7539 80.1079 17.9798C79.5528 18.2019 78.9114 18.3129 78.184 18.3129ZM89.6458 18.1406H86.981L91.0414 6.3787H94.2461L98.3007 18.1406H95.6359L92.6897 9.06648H92.5978L89.6458 18.1406ZM89.4793 13.5174H95.7737V15.4586H89.4793V13.5174ZM102.203 6.3787V18.1406H99.7164V6.3787H102.203Z" fill="white" fill-opacity="0.9"/>
</g>
</svg>
