<svg width="139" height="32" viewBox="0 0 139 32" fill="none" xmlns="http://www.w3.org/2000/svg">
<g clip-path="url(#clip0_350_39939)">
<path fill-rule="evenodd" clip-rule="evenodd" d="M11.8466 22.4C10.7993 22.4 9.79488 21.9786 9.05432 21.2284C8.31377 20.4783 7.89773 19.4609 7.89773 18.4V0H0V18.4C0 25.0272 5.30411 30.4 11.8466 30.4H20.5341V22.4H11.8466ZM35.5398 8C34.6063 8 33.6821 8.18623 32.8197 8.54807C31.9573 8.9099 31.1737 9.44025 30.5137 10.1088C29.8537 10.7774 29.3301 11.5711 28.9729 12.4447C28.6157 13.3182 28.4318 14.2545 28.4318 15.2C28.4318 16.1455 28.6157 17.0818 28.9729 17.9553C29.3301 18.8289 29.8537 19.6226 30.5137 20.2912C31.1737 20.9598 31.9573 21.4901 32.8197 21.8519C33.6821 22.2138 34.6063 22.4 35.5398 22.4C37.4249 22.4 39.2329 21.6414 40.5659 20.2912C41.8989 18.9409 42.6477 17.1096 42.6477 15.2C42.6477 13.2904 41.8989 11.4591 40.5659 10.1088C39.2329 8.75857 37.4249 8 35.5398 8ZM20.5341 15.2C20.5341 6.8056 27.2527 0 35.5398 0C43.8269 0 50.5455 6.8056 50.5455 15.2C50.5455 23.5944 43.8269 30.4 35.5398 30.4C27.2527 30.4 20.5341 23.5944 20.5341 15.2ZM120.835 8C118.95 8 117.142 8.75857 115.809 10.1088C114.476 11.4591 113.727 13.2904 113.727 15.2C113.727 17.1096 114.476 18.9409 115.809 20.2912C117.142 21.6414 118.95 22.4 120.835 22.4C122.72 22.4 124.528 21.6414 125.861 20.2912C127.194 18.9409 127.943 17.1096 127.943 15.2C127.943 13.2904 127.194 11.4591 125.861 10.1088C124.528 8.75857 122.72 8 120.835 8ZM105.83 15.2C105.83 6.8056 112.548 0 120.835 0C129.122 0 135.841 6.8056 135.841 15.2C135.841 23.5944 129.122 30.4 120.835 30.4C112.548 30.4 105.83 23.5944 105.83 15.2ZM67.1307 0C58.8436 0 52.125 6.8056 52.125 15.2C52.125 23.5944 58.8436 30.4 67.1307 30.4H89.2443C90.7994 30.4 92.2992 30.16 93.7097 29.7152L97.9318 32L102.487 23.3568C103.644 21.1565 104.25 18.7018 104.25 16.2088V15.2C104.25 6.8056 97.5314 0 89.2443 0H67.1307ZM96.3523 15.2C96.3523 13.2904 95.6034 11.4591 94.2704 10.1088C92.9374 8.75857 91.1295 8 89.2443 8H67.1307C66.1973 8 65.273 8.18623 64.4106 8.54807C63.5482 8.9099 62.7646 9.44025 62.1046 10.1088C61.4446 10.7774 60.921 11.5711 60.5638 12.4447C60.2066 13.3182 60.0227 14.2545 60.0227 15.2C60.0227 16.1455 60.2066 17.0818 60.5638 17.9553C60.921 18.8289 61.4446 19.6226 62.1046 20.2912C62.7646 20.9598 63.5482 21.4901 64.4106 21.8519C65.273 22.2138 66.1973 22.4 67.1307 22.4H89.2443C91.1199 22.4001 92.9195 21.6492 94.251 20.311C95.5824 18.9728 96.3377 17.1558 96.3523 15.256V15.2Z" fill="#283841"/>
<path d="M139 2C139 2.53043 138.792 3.03914 138.421 3.41421C138.051 3.78929 137.549 4 137.025 4C136.502 4 135.999 3.78929 135.629 3.41421C135.259 3.03914 135.051 2.53043 135.051 2C135.051 1.46957 135.259 0.960859 135.629 0.585786C135.999 0.210714 136.502 0 137.025 0C137.549 0 138.051 0.210714 138.421 0.585786C138.792 0.960859 139 1.46957 139 2Z" fill="#283841"/>
</g>
<defs>
<clipPath id="clip0_350_39939">
<rect width="139" height="32" fill="white"/>
</clipPath>
</defs>
</svg>
