<svg width="135" height="32" viewBox="0 0 135 32" fill="none" xmlns="http://www.w3.org/2000/svg">
<g clip-path="url(#clip0_350_39942)">
<path fill-rule="evenodd" clip-rule="evenodd" d="M7.99999 2V32H0V2H7.99999Z" fill="#283841"/>
<path fill-rule="evenodd" clip-rule="evenodd" d="M12 2H29C34.5229 2 39 6.47715 39 12C39 17.5229 34.5229 22 29 22H20V32H12V2ZM20 14H29C30.1046 14 31 13.1046 31 12C31 10.8954 30.1046 10 29 10H20V14Z" fill="#283841"/>
<path fill-rule="evenodd" clip-rule="evenodd" d="M69 2V17.5C69 21.0898 71.9101 24 75.5 24C79.0898 24 82.0001 21.0898 82.0001 17.5V2H90.0002V17.5C90.0002 25.5082 83.5083 32 75.5 32C67.4918 32 61 25.5082 61 17.5V2H69Z" fill="#283841"/>
<path fill-rule="evenodd" clip-rule="evenodd" d="M42 16C42 8.268 48.268 2 56 2H58V10H56C52.6862 10 50 12.6863 50 16V17C50 25.2842 43.2842 32 35 32H34V24H35C38.866 24 42 20.866 42 17V16Z" fill="#283841"/>
<path d="M135 3C135 4.65686 133.657 6 132 6C130.343 6 129 4.65686 129 3C129 1.34314 130.343 0 132 0C133.657 0 135 1.34314 135 3Z" fill="#283841"/>
<path d="M98.5898 32.0007L102.407 16.0152L105.246 25.6321C106.937 31.368 115.062 31.368 116.755 25.6321L119.592 16.0152L123.41 32.0007H131.634L125.632 6.86428C124.205 0.886641 115.781 0.665314 114.041 6.55982L111 16.8673L107.958 6.55983C106.219 0.665348 97.795 0.886609 96.3675 6.86427L90.3652 32.0007H98.5898Z" fill="#283841"/>
</g>
<defs>
<clipPath id="clip0_350_39942">
<rect width="135" height="32" fill="white"/>
</clipPath>
</defs>
</svg>
