<svg width="192" height="48" viewBox="0 0 192 48" fill="none" xmlns="http://www.w3.org/2000/svg">
<path d="M1.10352 35.5992L1.10352 11.8672L12.892 18.4594V29.0729L22.3228 34.4126L31.7535 29.0729V18.4594L43.5421 11.8672V35.5992L22.3228 47.4652L1.10352 35.5992Z" fill="#192657"/>
<path fill-rule="evenodd" clip-rule="evenodd" d="M6.99776 15.1622L1.10352 11.866L22.3228 0L43.5421 11.866L37.6478 15.1622V32.6315L22.3228 41.5311L6.99775 32.6315L6.99776 15.1622ZM37.0093 15.5193L31.7535 18.4583V18.3923L22.3228 13.0526L12.892 18.3923V18.4583L7.63629 15.5193V32.2665L22.3228 40.7952L37.0093 32.2665V15.5193Z" fill="url(#paint0_linear_350_39949)"/>
<path d="M54.8398 33.722V13.7871H58.5744V30.3045H67.628V33.722H54.8398Z" fill="#192657"/>
<path d="M75.69 34.1219C74.2943 34.1219 73.04 33.8372 71.9271 33.2675C70.8143 32.698 69.9372 31.8721 69.296 30.79C68.6546 29.7078 68.334 28.4073 68.334 26.8884V26.4327C68.334 24.9139 68.6546 23.6133 69.296 22.5312C69.9372 21.449 70.8143 20.6232 71.9271 20.0536C73.04 19.4839 74.2943 19.1992 75.69 19.1992C77.0858 19.1992 78.3401 19.4839 79.4529 20.0536C80.5658 20.6232 81.4428 21.449 82.0841 22.5312C82.7253 23.6133 83.0461 24.9139 83.0461 26.4327V26.8884C83.0461 28.4073 82.7253 29.7078 82.0841 30.79C81.4428 31.8721 80.5658 32.698 79.4529 33.2675C78.3401 33.8372 77.0858 34.1219 75.69 34.1219ZM75.69 30.9323C76.784 30.9323 77.6894 30.5812 78.4061 29.8786C79.1229 29.1572 79.4812 28.1319 79.4812 26.8029V26.5182C79.4812 25.1892 79.1229 24.1734 78.4061 23.471C77.7082 22.7496 76.8028 22.3888 75.69 22.3888C74.5961 22.3888 73.6907 22.7496 72.974 23.471C72.2572 24.1734 71.8989 25.1892 71.8989 26.5182V26.8029C71.8989 28.1319 72.2572 29.1572 72.974 29.8786C73.6907 30.5812 74.5961 30.9323 75.69 30.9323Z" fill="#192657"/>
<path d="M84.3848 26.7175V26.2619C84.3848 24.781 84.677 23.5185 85.2618 22.4742C85.8465 21.411 86.6199 20.6041 87.5818 20.0536C88.5626 19.4839 89.6282 19.1992 90.7787 19.1992C92.0614 19.1992 93.0328 19.4271 93.6929 19.8827C94.3531 20.3383 94.8341 20.813 95.1358 21.3067H95.6451V19.5979H99.1533V36.2294C99.1533 37.1976 98.8704 37.9665 98.3045 38.5361C97.7387 39.1247 96.9842 39.419 96.0412 39.419H86.6481V36.2863H94.7963C95.3244 36.2863 95.5885 36.0015 95.5885 35.4319V31.7582H95.0792C94.8906 32.062 94.6265 32.3752 94.2871 32.698C93.9475 33.0017 93.4949 33.258 92.929 33.467C92.3632 33.6758 91.6464 33.7802 90.7787 33.7802C89.6282 33.7802 88.5626 33.5049 87.5818 32.9543C86.6199 32.3847 85.8465 31.5778 85.2618 30.5337C84.677 29.4705 84.3848 28.1985 84.3848 26.7175ZM91.7973 30.6476C92.8912 30.6476 93.8061 30.2963 94.5417 29.5939C95.2773 28.8914 95.6451 27.9041 95.6451 26.6321V26.3473C95.6451 25.0562 95.2773 24.0691 94.5417 23.3856C93.8249 22.6831 92.9102 22.3319 91.7973 22.3319C90.7033 22.3319 89.7885 22.6831 89.053 23.3856C88.3174 24.0691 87.9496 25.0562 87.9496 26.3473V26.6321C87.9496 27.9041 88.3174 28.8914 89.053 29.5939C89.7885 30.2963 90.7033 30.6476 91.7973 30.6476Z" fill="#192657"/>
<path d="M108.51 34.1219C107.114 34.1219 105.86 33.8372 104.747 33.2675C103.634 32.698 102.757 31.8721 102.116 30.79C101.475 29.7078 101.154 28.4073 101.154 26.8884V26.4327C101.154 24.9139 101.475 23.6133 102.116 22.5312C102.757 21.449 103.634 20.6232 104.747 20.0536C105.86 19.4839 107.114 19.1992 108.51 19.1992C109.906 19.1992 111.16 19.4839 112.273 20.0536C113.386 20.6232 114.263 21.449 114.904 22.5312C115.546 23.6133 115.866 24.9139 115.866 26.4327V26.8884C115.866 28.4073 115.546 29.7078 114.904 30.79C114.263 31.8721 113.386 32.698 112.273 33.2675C111.16 33.8372 109.906 34.1219 108.51 34.1219ZM108.51 30.9323C109.604 30.9323 110.51 30.5812 111.226 29.8786C111.943 29.1572 112.301 28.1319 112.301 26.8029V26.5182C112.301 25.1892 111.943 24.1734 111.226 23.471C110.528 22.7496 109.623 22.3888 108.51 22.3888C107.416 22.3888 106.511 22.7496 105.794 23.471C105.077 24.1734 104.719 25.1892 104.719 26.5182V26.8029C104.719 28.1319 105.077 29.1572 105.794 29.8786C106.511 30.5812 107.416 30.9323 108.51 30.9323Z" fill="#192657"/>
<path d="M117.882 33.7224V19.597H121.447V33.7224H117.882ZM119.665 17.9453C119.023 17.9453 118.476 17.7365 118.024 17.3187C117.59 16.901 117.373 16.3504 117.373 15.667C117.373 14.9835 117.59 14.4329 118.024 14.0152C118.476 13.5976 119.023 13.3887 119.665 13.3887C120.325 13.3887 120.872 13.5976 121.306 14.0152C121.739 14.4329 121.956 14.9835 121.956 15.667C121.956 16.3504 121.739 16.901 121.306 17.3187C120.872 17.7365 120.325 17.9453 119.665 17.9453Z" fill="#192657"/>
<path d="M124.125 39.419V19.5979H127.633V21.3067H128.143C128.463 20.7561 128.962 20.2719 129.643 19.8542C130.321 19.4175 131.293 19.1992 132.556 19.1992C133.688 19.1992 134.735 19.4839 135.696 20.0536C136.659 20.6041 137.432 21.4205 138.017 22.5028C138.601 23.5849 138.894 24.8949 138.894 26.4327V26.8884C138.894 28.4262 138.601 29.7362 138.017 30.8184C137.432 31.9007 136.659 32.7265 135.696 33.2961C134.735 33.8467 133.688 34.1219 132.556 34.1219C131.707 34.1219 130.99 34.0175 130.406 33.8087C129.84 33.6188 129.378 33.372 129.02 33.0682C128.68 32.7455 128.406 32.4227 128.199 32.1H127.69V39.419H124.125ZM131.481 30.9893C132.594 30.9893 133.509 30.638 134.225 29.9356C134.961 29.2142 135.329 28.1699 135.329 26.8029V26.5182C135.329 25.1512 134.961 24.1164 134.225 23.414C133.49 22.6926 132.575 22.3319 131.481 22.3319C130.387 22.3319 129.472 22.6926 128.737 23.414C128.001 24.1164 127.633 25.1512 127.633 26.5182V26.8029C127.633 28.1699 128.001 29.2142 128.737 29.9356C129.472 30.638 130.387 30.9893 131.481 30.9893Z" fill="#192657"/>
<path d="M146.722 34.1219C144.893 34.1219 143.393 33.7233 142.224 32.9258C141.055 32.1284 140.348 30.9893 140.102 29.5084L143.384 28.6541C143.516 29.3185 143.733 29.8407 144.034 30.2204C144.356 30.6001 144.742 30.8753 145.195 31.0462C145.666 31.1981 146.175 31.2741 146.722 31.2741C147.552 31.2741 148.166 31.1316 148.562 30.8469C148.957 30.5431 149.156 30.1729 149.156 29.7362C149.156 29.2996 148.967 28.9673 148.59 28.7395C148.213 28.4926 147.61 28.2933 146.779 28.1415L145.987 27.999C145.006 27.8092 144.11 27.5529 143.299 27.2301C142.488 26.8884 141.837 26.4232 141.346 25.8347C140.857 25.2461 140.611 24.4867 140.611 23.5564C140.611 22.1515 141.121 21.0788 142.14 20.3383C143.157 19.5789 144.497 19.1992 146.156 19.1992C147.723 19.1992 149.024 19.5505 150.06 20.2529C151.098 20.9554 151.777 21.8762 152.098 23.0153L148.788 24.0405C148.637 23.3191 148.326 22.8064 147.854 22.5028C147.401 22.199 146.835 22.047 146.156 22.047C145.478 22.047 144.959 22.1704 144.6 22.4172C144.243 22.6451 144.063 22.9679 144.063 23.3856C144.063 23.8412 144.252 24.1829 144.629 24.4108C145.006 24.6196 145.515 24.781 146.156 24.8949L146.948 25.0373C148.005 25.2271 148.957 25.4834 149.807 25.8062C150.674 26.11 151.353 26.5561 151.844 27.1447C152.353 27.7143 152.608 28.4927 152.608 29.4799C152.608 30.9609 152.07 32.1095 150.994 32.9258C149.939 33.7233 148.514 34.1219 146.722 34.1219Z" fill="#192657"/>
<path d="M159.804 33.9508C158.711 33.9508 157.748 33.704 156.919 33.2105C156.108 32.6977 155.476 31.9953 155.023 31.103C154.571 30.2107 154.344 29.1854 154.344 28.0273V19.5977H157.909V27.7425C157.909 28.8057 158.164 29.6031 158.673 30.1347C159.2 30.6663 159.946 30.9321 160.908 30.9321C162.001 30.9321 162.851 30.5713 163.454 29.85C164.058 29.1095 164.359 28.0843 164.359 26.7743V19.5977H167.924V33.723H164.416V31.8719H163.907C163.68 32.3466 163.256 32.8117 162.634 33.2673C162.011 33.723 161.068 33.9508 159.804 33.9508Z" fill="#192657"/>
<path d="M170.619 33.7223V19.5969H174.127V21.1348H174.636C174.881 20.6601 175.287 20.252 175.852 19.9102C176.418 19.5495 177.163 19.3691 178.088 19.3691C179.087 19.3691 179.889 19.5685 180.493 19.9671C181.096 20.3468 181.558 20.8499 181.879 21.4765H182.388C182.709 20.869 183.162 20.3659 183.747 19.9671C184.331 19.5685 185.161 19.3691 186.236 19.3691C187.104 19.3691 187.887 19.559 188.584 19.9387C189.301 20.2993 189.867 20.8594 190.282 21.619C190.715 22.3593 190.932 23.2991 190.932 24.4383V33.7223H187.367V24.6946C187.367 23.9161 187.17 23.3371 186.773 22.9574C186.377 22.5587 185.821 22.3593 185.104 22.3593C184.294 22.3593 183.661 22.6252 183.208 23.1567C182.775 23.6693 182.558 24.4098 182.558 25.3781V33.7223H178.993V24.6946C178.993 23.9161 178.795 23.3371 178.4 22.9574C178.003 22.5587 177.447 22.3593 176.729 22.3593C175.919 22.3593 175.287 22.6252 174.834 23.1567C174.4 23.6693 174.183 24.4098 174.183 25.3781V33.7223H170.619Z" fill="#192657"/>
<defs>
<linearGradient id="paint0_linear_350_39949" x1="6.99775" y1="9.22911" x2="38.8266" y2="9.22912" gradientUnits="userSpaceOnUse">
<stop stop-color="#64C2DB"/>
<stop offset="0.307292" stop-color="#7476ED"/>
<stop offset="0.604167" stop-color="#C994DF"/>
<stop offset="1" stop-color="#E56F8C"/>
</linearGradient>
</defs>
</svg>
