<svg width="154" height="35" viewBox="0 0 154 35" fill="none" xmlns="http://www.w3.org/2000/svg">
<g clip-path="url(#clip0_350_39922)">
<path d="M44.4325 18.2018C44.4632 17.6039 44.4632 17.0048 44.4325 16.4069H10.8455C10.8384 16.5559 10.8322 16.7058 10.8287 16.8556H3.79247L3.78893 17.08H0V17.5287H3.78805L3.79336 17.7531H10.8287C10.8322 17.9038 10.8375 18.0528 10.8464 18.2018H20.4891C20.4525 17.9041 20.4341 17.6044 20.4342 17.3044H34.5951C34.5951 17.6086 34.5774 17.9083 34.5403 18.2018H44.4325ZM44.3626 15.5095H34.373C34.2953 15.2041 34.1977 14.9043 34.0809 14.6121H20.9511C20.8351 14.9028 20.7369 15.2017 20.659 15.5095H10.9145C10.9305 15.3596 10.9482 15.2097 10.9676 15.0608H3.93143L3.96152 14.8418H0V14.3931H4.03144L4.07215 14.1633H11.1084C11.1349 14.0135 11.165 13.8636 11.1969 13.7146H44.0821C44.206 14.3024 44.3007 14.901 44.3626 15.5095ZM43.867 12.8172H33.0427C32.7875 12.4941 32.5053 12.1938 32.1993 11.9197H22.8318C22.5265 12.1944 22.2433 12.4941 21.9884 12.8172H11.4119C11.4518 12.6673 11.4942 12.5174 11.5385 12.3685H4.50229L4.58017 12.1163H0V11.6667H4.72798L4.79701 11.4701H11.8332C11.8863 11.3194 11.943 11.1704 12.0014 11.0214H43.2767C43.505 11.6047 43.7024 12.2051 43.867 12.8172ZM42.8961 10.1249H12.382C12.451 9.9741 12.5218 9.82513 12.5953 9.67615H5.55993L5.68472 9.42846H0V8.97974H5.92457L6.03698 8.77872H13.0732C13.159 8.62795 13.2475 8.47808 13.3378 8.33H41.9402C42.2925 8.90615 42.6129 9.50564 42.8961 10.1249ZM10.9145 19.0992H44.3635C44.3007 19.7077 44.206 20.3072 44.0821 20.8941H33.649C33.8127 20.6069 33.9579 20.3072 34.0818 19.9967H20.9493C21.0732 20.3072 21.2175 20.6069 21.3812 20.8941H11.196C11.1645 20.7449 11.135 20.5954 11.1075 20.4454H4.07215C4.05773 20.3665 4.04387 20.2875 4.03055 20.2085H0V19.7597H3.96063C3.95047 19.6892 3.94073 19.6186 3.93143 19.5479H10.9676C10.948 19.3986 10.9303 19.249 10.9145 19.0992ZM11.411 21.7915H43.8661C43.7024 22.4045 43.505 23.0031 43.2767 23.5864H30.946C31.3945 23.334 31.8147 23.0331 32.1993 22.689H22.8318C23.2164 23.0331 23.6366 23.334 24.0851 23.5864H12.0014C11.9433 23.4376 11.8872 23.288 11.8332 23.1377H4.79701L4.7209 22.9214H0V22.4727H4.57398C4.54984 22.3954 4.52623 22.3179 4.50317 22.2403H11.5385C11.4942 22.0913 11.4518 21.9423 11.411 21.7915ZM12.382 24.4838H42.8961C42.6131 25.101 42.2939 25.7003 41.9402 26.2787H13.3378C13.247 26.1305 13.1585 25.9809 13.0723 25.83H6.03698C5.99272 25.7528 5.94936 25.6756 5.90687 25.5976H0V25.1488H5.66879L5.55993 24.9335H12.5961C12.5226 24.785 12.4512 24.6354 12.382 24.4847V24.4838ZM14.9752 28.5223C15.1053 28.6749 15.2389 28.8238 15.3752 28.971H39.9028C40.4252 28.4066 40.9092 27.8069 41.3517 27.1762H13.9264C14.0326 27.3278 14.1406 27.4777 14.2521 27.6249H7.21587L7.39112 27.8537H0V28.3024H7.7531C7.81417 28.3769 7.87613 28.4496 7.93897 28.5223H14.9752ZM17.9109 31.2146C18.126 31.3699 18.3446 31.5197 18.5659 31.6633H36.7122C37.5268 31.1329 38.2949 30.5324 39.008 29.8685H16.2709C16.4346 30.021 16.6019 30.1709 16.7718 30.3172H9.73563C9.83122 30.3997 9.92769 30.4805 10.025 30.5595H0V31.0082H10.5959C10.688 31.0782 10.7818 31.1473 10.8756 31.2146H17.9118H17.9109ZM24.1214 33.9823C25.256 34.2273 26.4322 34.3556 27.6386 34.3556C30.3415 34.3556 32.8949 33.7095 35.1571 32.5608H20.12C20.4351 32.7205 20.7546 32.8704 21.0794 33.0095H14.0432C14.1689 33.0633 14.2954 33.1163 14.422 33.1674H0V33.6162H15.6876C17.2427 34.0972 18.8933 34.3556 20.6033 34.3556C21.8096 34.3556 22.9867 34.2273 24.1214 33.9823ZM13.9264 7.43256H41.3517C40.9093 6.80177 40.4252 6.20211 39.9028 5.63769H15.3752C15.2389 5.78487 15.1053 5.93385 14.9743 6.08641H7.93897L7.7832 6.27128H0V6.72H7.41855C7.3504 6.80705 7.28314 6.895 7.21676 6.98385H14.2521C14.1406 7.13192 14.0326 7.2818 13.9264 7.43256ZM16.27 4.74026H39.0071C38.2943 4.07638 37.5265 3.47587 36.7122 2.94538H18.5659C18.3446 3.08987 18.126 3.23974 17.9109 3.3941H10.8756C10.7782 3.465 10.6809 3.5359 10.5853 3.60859H0V4.05731H10.0153C9.92149 4.13449 9.82856 4.21256 9.73652 4.29154H16.7718C16.6019 4.43782 16.4346 4.58769 16.27 4.74026ZM20.1209 2.04795H35.158C32.824 0.863724 30.2493 0.249083 27.6395 0.253077C26.4322 0.253077 25.256 0.382308 24.1214 0.627308C22.9648 0.378 21.7856 0.252569 20.6033 0.253077C18.7145 0.253077 16.8993 0.568974 15.2044 1.15051H0V1.59923H21.0794C20.7553 1.73853 20.4357 1.88818 20.1209 2.04795ZM98.4609 0C99.0424 0 99.499 0.147179 99.8309 0.441539C100.177 0.722436 100.35 1.11462 100.35 1.62077C100.35 2.12603 100.177 2.52538 99.8309 2.81974C99.499 3.10064 99.0424 3.24154 98.4609 3.24154C97.8803 3.24154 97.4165 3.10064 97.0705 2.81974C96.7386 2.52538 96.5722 2.12603 96.5722 1.62077C96.5722 1.11551 96.7386 0.723333 97.0705 0.441539C97.4165 0.147179 97.8803 0 98.4609 0ZM100.08 5.19795V14.3527C100.08 14.9423 100.177 15.3426 100.371 15.5526C100.578 15.7635 100.924 15.8685 101.408 15.8685V16.31C101.021 16.2908 100.634 16.2768 100.246 16.2678C99.7137 16.2396 99.1807 16.2255 98.6476 16.2256C98.1086 16.2256 97.5617 16.24 97.0085 16.2678C96.5933 16.2771 96.1781 16.2912 95.7632 16.31V15.8685C96.2473 15.8685 96.5863 15.7635 96.7802 15.5526C96.9873 15.3426 97.0917 14.9423 97.0917 14.3527V7.72333C97.0917 7.09244 96.9943 6.62846 96.8005 6.335C96.6208 6.02628 96.2748 5.87192 95.7632 5.87192V5.42949C96.2057 5.47167 96.635 5.49231 97.0501 5.49231C97.6307 5.49231 98.1706 5.47167 98.6689 5.42949C99.1804 5.37385 99.6513 5.29667 100.08 5.19795Z" fill="#2F2352"/>
<path fill-rule="evenodd" clip-rule="evenodd" d="M105.921 7.12919V5.1979C105.492 5.29662 105.022 5.3738 104.51 5.42944C103.998 5.47162 103.458 5.49226 102.89 5.49226C102.475 5.49226 102.047 5.47162 101.604 5.42944V5.87188C102.102 5.87188 102.448 6.02624 102.642 6.33495C102.836 6.62931 102.932 7.09239 102.932 7.72329V18.2466C102.932 18.8075 102.836 19.1862 102.642 19.3828C102.462 19.5793 102.143 19.6771 101.687 19.6771V20.1196L102.787 20.0567C103.292 20.0425 103.797 20.0353 104.302 20.0352C105.007 20.0352 105.672 20.0424 106.294 20.0559C106.931 20.0846 107.429 20.1052 107.789 20.1187V19.6771C107.208 19.6771 106.751 19.565 106.419 19.3406C106.087 19.1306 105.921 18.6953 105.921 18.0357V15.9267C106.103 16.0811 106.317 16.2085 106.564 16.31C107.007 16.5074 107.498 16.6052 108.038 16.6052C108.772 16.6052 109.428 16.4715 110.01 16.205C110.601 15.9413 111.121 15.5372 111.525 15.0266C111.953 14.4935 112.279 13.8411 112.5 13.0693C112.736 12.2975 112.853 11.4001 112.853 10.3752C112.853 9.21124 112.687 8.2429 112.355 7.47111C112.023 6.68495 111.58 6.10342 111.027 5.7247C110.474 5.33183 109.813 5.12553 109.138 5.13508C108.335 5.13508 107.63 5.34508 107.021 5.76598C106.542 6.09354 106.176 6.54765 105.921 7.13008V7.12919ZM105.921 7.85252V15.4816C106.036 15.6198 106.175 15.7347 106.336 15.8262C106.599 15.9662 106.896 16.0362 107.229 16.0362C107.851 16.0362 108.342 15.8262 108.703 15.4053C109.062 14.9701 109.318 14.367 109.47 13.5952C109.636 12.81 109.719 11.8766 109.719 10.7961C109.719 9.58995 109.643 8.64226 109.491 7.95483C109.339 7.26739 109.131 6.77649 108.868 6.48213C108.605 6.18688 108.287 6.0397 107.913 6.0397C107.416 6.0397 106.959 6.23713 106.544 6.62931C106.231 6.93444 106.023 7.34278 105.921 7.85252Z" fill="#2F2352"/>
<path d="M117.619 5.13497C118.201 5.13497 118.705 5.21215 119.135 5.36651C119.577 5.50651 119.896 5.6474 120.09 5.7874C120.56 6.11048 120.851 5.89958 120.961 5.15561H121.397C121.369 5.54869 121.348 6.0333 121.335 6.60766C121.321 7.16946 121.314 7.91971 121.314 8.86023H120.878C120.807 8.33402 120.675 7.81825 120.483 7.32381C120.307 6.84396 120.015 6.41681 119.633 6.08176C119.273 5.75869 118.803 5.59715 118.221 5.59715C117.82 5.59715 117.481 5.7174 117.204 5.95612C116.927 6.18048 116.789 6.50984 116.789 6.9451C116.789 7.36599 116.914 7.73753 117.163 8.06061C117.412 8.36933 117.73 8.67087 118.118 8.96522C118.519 9.24612 118.934 9.54766 119.363 9.86984C119.82 10.2207 120.235 10.5716 120.608 10.9225C120.966 11.2399 121.268 11.6172 121.5 12.038C121.723 12.4446 121.833 12.9283 121.833 13.4901C121.833 14.121 121.653 14.6747 121.293 15.1521C120.933 15.6152 120.456 15.9733 119.861 16.2255C119.28 16.4786 118.629 16.6051 117.911 16.6051C117.533 16.6094 117.157 16.5669 116.789 16.4786C116.501 16.4059 116.223 16.2999 115.959 16.1627C115.779 16.0783 115.606 16.0011 115.44 15.9311C115.299 15.8524 115.154 15.7822 115.004 15.7211C114.866 15.6789 114.741 15.7274 114.631 15.8683C114.534 16.0083 114.458 16.2048 114.402 16.457H113.967C113.994 16.0083 114.015 15.4609 114.029 14.8156C114.043 14.1704 114.05 13.3142 114.05 12.2489H114.485C114.569 13.0064 114.721 13.6795 114.942 14.2682C115.163 14.8443 115.461 15.3002 115.834 15.6368C116.222 15.9598 116.706 16.1214 117.288 16.1214C117.523 16.1214 117.751 16.072 117.973 15.9733C118.194 15.8746 118.373 15.713 118.512 15.4887C118.665 15.2643 118.741 14.9771 118.741 14.6271C118.741 14.0088 118.54 13.4964 118.138 13.0898C117.751 12.6833 117.253 12.2409 116.644 11.7643C116.202 11.3991 115.779 11.0419 115.378 10.691C115.007 10.3461 114.685 9.94933 114.423 9.51266C114.171 9.0644 114.042 8.55537 114.05 8.03907C114.05 7.40817 114.216 6.8751 114.547 6.43984C114.886 6.00005 115.339 5.66472 115.856 5.47151C116.417 5.24559 117.016 5.13134 117.619 5.13497ZM143.384 5.36651C143.024 5.21215 142.554 5.13497 141.973 5.13497C141.322 5.12827 140.68 5.2875 140.105 5.59805C139.538 5.8924 139.088 6.39048 138.755 7.09228V5.19869C138.327 5.29651 137.856 5.37369 137.345 5.42933C136.846 5.47151 136.307 5.49215 135.726 5.49215C135.311 5.49215 134.882 5.47151 134.439 5.42933V5.87176C134.951 5.87176 135.297 6.02612 135.476 6.33484C135.67 6.6292 135.767 7.09228 135.767 7.72317V14.3525C135.767 14.9421 135.663 15.3424 135.456 15.5524C135.262 15.7633 134.923 15.8683 134.439 15.8683V16.3098C134.854 16.291 135.269 16.2769 135.684 16.2677C136.223 16.24 136.763 16.2259 137.303 16.2255C137.787 16.2255 138.258 16.2398 138.714 16.2677C139.185 16.282 139.531 16.2964 139.752 16.3098V15.8683C139.393 15.8683 139.136 15.7633 138.984 15.5524C138.832 15.3424 138.755 14.9421 138.755 14.3525V8.50215C138.755 8.03907 138.846 7.62535 139.025 7.2601C139.219 6.88138 139.468 6.58702 139.772 6.37702C140.065 6.17044 140.413 6.06014 140.769 6.06112C141.088 6.06112 141.322 6.1383 141.474 6.29266C141.641 6.43266 141.751 6.63638 141.807 6.90292C141.862 7.1551 141.889 7.45663 141.889 7.80753V14.3525C141.889 14.9421 141.813 15.3424 141.661 15.5524C141.523 15.7633 141.267 15.8683 140.894 15.8683V16.3098C141.142 16.2964 141.509 16.282 141.994 16.2677C142.976 16.2109 143.96 16.2109 144.941 16.2677C145.453 16.282 145.833 16.2964 146.082 16.3098V15.8683C145.639 15.8683 145.328 15.7633 145.148 15.5524C144.969 15.3424 144.878 14.9421 144.878 14.3525V8.59548L144.877 8.52997L144.874 8.31728C144.906 7.96549 144.999 7.62217 145.148 7.30317C145.342 6.92356 145.591 6.62202 145.895 6.39766C146.2 6.1733 146.532 6.06112 146.892 6.06112C147.251 6.06112 147.515 6.1383 147.68 6.29266C147.86 6.43266 147.978 6.63638 148.034 6.90292C148.103 7.1551 148.137 7.45663 148.137 7.80753V14.3525C148.137 14.9421 148.061 15.3424 147.909 15.5524C147.771 15.7633 147.515 15.8683 147.141 15.8683V16.3098C147.39 16.2964 147.757 16.282 148.241 16.2677C148.731 16.2394 149.223 16.2253 149.714 16.2255C150.227 16.2255 150.745 16.2398 151.271 16.2677C151.797 16.282 152.192 16.2964 152.454 16.3098V15.8683C151.97 15.8683 151.624 15.7633 151.416 15.5524C151.222 15.3424 151.126 14.9421 151.126 14.3525V8.69151C151.126 7.98971 151.077 7.42881 150.981 7.00792C150.883 6.57266 150.725 6.22266 150.503 5.95612C150.282 5.70305 149.991 5.5074 149.631 5.36651C149.272 5.21215 148.801 5.13497 148.22 5.13497C147.515 5.13497 146.85 5.28215 146.228 5.57651C145.632 5.86548 145.148 6.41651 144.777 7.22958C144.765 7.15529 144.75 7.08138 144.733 7.00792C144.637 6.57266 144.477 6.22266 144.256 5.95612C144.035 5.70305 143.744 5.5074 143.384 5.36651ZM132.811 14.016V5.19779C132.381 5.29651 131.911 5.37369 131.399 5.42933C130.901 5.47151 130.362 5.49215 129.78 5.49215C129.365 5.49215 128.937 5.47151 128.493 5.42933V5.87176C129.006 5.87176 129.352 6.02612 129.531 6.33484C129.725 6.6292 129.822 7.09228 129.822 7.72317V13.237C129.822 13.7001 129.725 14.121 129.531 14.4997C129.367 14.8465 129.117 15.144 128.805 15.363C128.514 15.5737 128.165 15.6844 127.808 15.6789C127.463 15.6789 127.2 15.608 127.02 15.468C126.833 15.3026 126.702 15.0819 126.646 14.8371C126.587 14.5321 126.559 14.2218 126.563 13.911V5.19779C126.135 5.29651 125.664 5.37369 125.152 5.42933C124.654 5.47151 124.114 5.49215 123.533 5.49215C123.118 5.49215 122.689 5.47151 122.247 5.42933V5.87176C122.758 5.87176 123.104 6.02612 123.284 6.33484C123.478 6.6292 123.574 7.09228 123.574 7.72317V13.0477C123.574 13.7351 123.623 14.2969 123.72 14.7313C123.817 15.1665 123.983 15.5174 124.218 15.7839C124.426 16.0227 124.709 16.2192 125.069 16.3736C125.428 16.527 125.899 16.6051 126.481 16.6051C127.2 16.6051 127.85 16.457 128.431 16.1627C129.026 15.8539 129.49 15.3487 129.822 14.6478V16.5414C130.285 16.4257 130.757 16.3482 131.233 16.3098C131.732 16.2677 132.271 16.247 132.852 16.247C133.281 16.247 133.71 16.2677 134.139 16.3098V15.8683C133.641 15.8683 133.295 15.7211 133.101 15.4259C132.907 15.1171 132.811 14.6478 132.811 14.0169V14.016Z" fill="#2F2352"/>
<path fill-rule="evenodd" clip-rule="evenodd" d="M92.6616 5.70397C91.9005 5.32525 91.0145 5.13589 90.0047 5.13589C89.0223 5.13589 88.1434 5.32525 87.369 5.70397C86.6078 6.08268 86.006 6.69294 85.5635 7.53474C85.1342 8.37653 84.9191 9.49204 84.9191 10.8813C84.9191 12.2705 85.1342 13.3851 85.5626 14.2278C86.0051 15.0552 86.6069 15.6583 87.3681 16.037C88.1434 16.4158 89.0223 16.606 90.0047 16.606C91.0145 16.606 91.9005 16.4158 92.6616 16.037C93.4219 15.6583 94.0175 15.0552 94.4459 14.2278C94.8751 13.386 95.0893 12.2705 95.0893 10.8813C95.0893 9.49204 94.8751 8.37743 94.4459 7.53474C94.0175 6.69294 93.4219 6.08268 92.6616 5.70397ZM88.6143 6.81948C88.9877 5.97768 89.4515 5.55679 90.0047 5.55679C90.572 5.55679 91.0358 5.97768 91.3951 6.81948C91.7686 7.64691 91.9553 9.00115 91.9553 10.8813C91.9553 12.7614 91.7686 14.1156 91.3951 14.9431C91.0358 15.7705 90.572 16.1851 90.0047 16.1851C89.4515 16.1851 88.9877 15.7705 88.6143 14.9431C88.2408 14.1156 88.054 12.7614 88.054 10.8813C88.054 9.00115 88.2399 7.64691 88.6143 6.81948ZM78.1511 20.2676C77.2926 20.2676 76.5252 20.1904 75.8473 20.036C75.1835 19.896 74.6578 19.6717 74.2701 19.3629C73.8966 19.0677 73.7099 18.7033 73.7099 18.2681C73.7099 17.8328 73.9028 17.4406 74.2905 17.0897C74.6781 16.7532 75.2525 16.4867 76.0137 16.2901L76.1995 16.6267C75.9619 16.8076 75.7642 17.0368 75.619 17.2997C75.5083 17.5528 75.4526 17.8122 75.4526 18.0787C75.4526 18.6683 75.7154 19.117 76.242 19.4249C76.7819 19.7479 77.5077 19.9095 78.421 19.9095C79.0432 19.9095 79.5973 19.8251 80.0814 19.6573C80.5797 19.4886 80.9665 19.2355 81.2435 18.8999C81.5347 18.5624 81.6798 18.1487 81.6798 17.6578C81.6798 17.2369 81.5276 16.8788 81.2231 16.5845C80.9187 16.3036 80.3098 16.1636 79.3964 16.1636H78.1095C77.5431 16.1636 77.0439 16.1008 76.6155 15.9742C76.1996 15.8486 75.8747 15.6511 75.6393 15.3846C75.4048 15.1046 75.2871 14.7537 75.2871 14.3328C75.2871 13.7432 75.5154 13.2245 75.9721 12.7749C76.3296 12.4231 76.8235 12.0883 77.4537 11.7715C77.0394 11.7193 76.6325 11.6184 76.2411 11.4709C75.6189 11.2322 75.1277 10.8669 74.7684 10.376C74.4082 9.88512 74.2285 9.25422 74.2285 8.48243C74.2285 7.71063 74.4082 7.07884 74.7684 6.58794C75.1277 6.08268 75.6189 5.71743 76.242 5.49307C76.8642 5.25525 77.5696 5.13589 78.3582 5.13589C79.1477 5.13589 79.8531 5.25525 80.4753 5.49397C80.8859 5.64115 81.2382 5.85025 81.5347 6.11948C81.7108 5.86191 81.925 5.63217 82.1772 5.43025C82.6481 5.06589 83.1534 4.88281 83.6924 4.88281C84.135 4.88281 84.4678 5.00935 84.689 5.26243C84.9244 5.50025 85.0422 5.81615 85.0422 6.20922C85.0422 6.63012 84.9306 6.94512 84.7094 7.15602C84.4881 7.35345 84.2394 7.45127 83.9624 7.45127C83.7188 7.448 83.484 7.35848 83.2986 7.1982C83.1039 7.02948 82.9941 6.7773 82.9667 6.44076C82.9428 6.13922 83.026 5.76589 83.2163 5.31897C82.8127 5.49307 82.5012 5.6914 82.2817 5.91486C82.1162 6.07664 81.9716 6.25908 81.8515 6.45781C81.8852 6.49999 81.9179 6.54397 81.9489 6.58794C82.3091 7.07884 82.4888 7.70974 82.4888 8.48153C82.4888 9.25332 82.3091 9.88512 81.9489 10.376C81.5896 10.8669 81.0983 11.2322 80.4753 11.4709C79.8531 11.7087 79.1477 11.8281 78.3582 11.8281C78.2402 11.8282 78.1221 11.8255 78.0042 11.82C77.8174 11.9483 77.6378 12.0847 77.4661 12.2283C77.3594 12.3129 77.2739 12.4217 77.2162 12.5459C77.1586 12.6701 77.1305 12.8063 77.1342 12.9436C77.1342 13.3923 77.4112 13.6167 77.9643 13.6167H80.2266C80.9877 13.6167 81.6657 13.7082 82.2604 13.8904C82.8693 14.0735 83.3464 14.375 83.6924 14.7959C84.0527 15.2024 84.2323 15.7355 84.2323 16.3951C84.2323 17.0826 84.0111 17.7206 83.5685 18.3102C83.1393 18.8999 82.4755 19.3692 81.5754 19.7201C80.6762 20.0854 79.5344 20.2676 78.1511 20.2676ZM78.3582 11.4494C78.7326 11.4494 79.022 11.2394 79.23 10.8185C79.438 10.3832 79.5415 9.60422 79.5415 8.48243C79.5415 7.35974 79.438 6.58794 79.23 6.16704C79.0229 5.73179 78.7326 5.51461 78.3591 5.51461C77.9989 5.51461 77.7086 5.73179 77.4873 6.16704C77.2793 6.58794 77.1758 7.35974 77.1758 8.48243C77.1758 9.60422 77.2793 10.3832 77.4873 10.8185C77.7086 11.2394 77.9989 11.4494 78.3582 11.4494ZM71.0228 5.70397C70.2617 5.32525 69.3766 5.13589 68.3668 5.13589C67.3844 5.13589 66.5055 5.32525 65.7311 5.70397C64.9699 6.08268 64.3681 6.69294 63.9256 7.53474C63.4963 8.37653 63.2812 9.49204 63.2812 10.8813C63.2812 12.2705 63.4963 13.3851 63.9247 14.2278C64.3672 15.0552 64.9691 15.6583 65.7302 16.037C66.5055 16.4158 67.3844 16.606 68.3668 16.606C69.3766 16.606 70.2626 16.4158 71.0228 16.037C71.784 15.6583 72.3788 15.0552 72.808 14.2278C73.2373 13.386 73.4514 12.2705 73.4514 10.8813C73.4514 9.49204 73.2373 8.37743 72.808 7.53474C72.3796 6.69294 71.784 6.08268 71.0228 5.70397ZM66.9755 6.81948C67.3499 5.97768 67.8127 5.55679 68.3668 5.55679C68.9332 5.55679 69.397 5.97768 69.7563 6.81948C70.1307 7.64691 70.3175 9.00115 70.3175 10.8813C70.3175 12.7614 70.1307 14.1156 69.7572 14.9431C69.397 15.7705 68.9341 16.1851 68.3668 16.1851C67.8127 16.1851 67.349 15.7705 66.9755 14.9431C66.602 14.1156 66.4152 12.7614 66.4152 10.8813C66.4152 9.00115 66.602 7.64691 66.9755 6.81948Z" fill="#2F2352"/>
<path d="M57.6913 1.41016V1.83195C57.2214 1.84541 56.8611 1.90105 56.6124 1.99977C56.4986 2.03885 56.3957 2.10518 56.3125 2.19313C56.2293 2.28108 56.1683 2.38807 56.1345 2.50503C56.0522 2.74285 56.0106 3.12246 56.0106 3.64118V14.3323C56.0106 14.7667 56.038 15.0898 56.0938 15.3007C56.1628 15.5107 56.2876 15.6507 56.4673 15.7216C56.6611 15.7916 56.9452 15.8266 57.3178 15.8266H58.3357C58.8047 15.8266 59.2481 15.7144 59.6632 15.49C60.0792 15.2657 60.4518 14.9498 60.7837 14.5423C61.1338 14.0898 61.414 13.586 61.6148 13.0481C61.8361 12.4737 62.0016 11.8348 62.1122 11.133H62.5901C62.5485 11.6104 62.5282 12.2278 62.5282 12.9853C62.5282 13.3084 62.5344 13.7777 62.5485 14.3952C62.5627 15.0126 62.6034 15.6516 62.6724 16.3103C61.8774 16.2806 61.0819 16.2665 60.2863 16.2681C59.4013 16.2546 58.6118 16.2475 57.9197 16.2475H56.5921C56.0522 16.2475 55.4707 16.2546 54.8485 16.2681C54.2254 16.2681 53.5962 16.2753 52.9598 16.2896C52.3226 16.2896 51.7207 16.2968 51.1543 16.3103V15.8894C51.5968 15.8616 51.9287 15.805 52.15 15.7216C52.3713 15.6372 52.5164 15.4685 52.5863 15.2163C52.6686 14.9632 52.7102 14.5845 52.7102 14.0793V3.64118C52.7102 3.12157 52.6686 2.74375 52.5863 2.50503C52.5591 2.38828 52.5028 2.28056 52.4228 2.19212C52.3429 2.10367 52.242 2.03745 52.1296 1.99977C51.9084 1.90105 51.5827 1.84541 51.1543 1.83105V1.41016C52.2469 1.4512 53.3401 1.47215 54.4334 1.47298C55.0424 1.47298 55.6371 1.46669 56.2177 1.45234C56.8134 1.43798 57.3046 1.42452 57.6913 1.41016Z" fill="#2F2352"/>
<path fill-rule="evenodd" clip-rule="evenodd" d="M150.346 33.7003C150.317 33.5496 150.337 33.353 150.407 33.1107L153.33 22.3711C152.862 22.5657 152.378 22.7174 151.883 22.8243C151.376 22.9257 150.794 22.9805 150.138 22.9912L150.033 23.3089C150.521 23.3089 150.824 23.3897 150.944 23.5512C151.062 23.7128 151.077 23.964 150.988 24.3069L150.296 26.9534C150.252 26.8257 150.178 26.7114 150.078 26.6213C149.909 26.4598 149.676 26.379 149.377 26.379C148.781 26.379 148.228 26.5155 147.721 26.7874C147.211 27.07 146.752 27.4384 146.364 27.8769C145.956 28.3212 145.609 28.82 145.334 29.3594C145.063 29.8844 144.848 30.437 144.693 31.008C144.551 31.4999 144.476 32.0088 144.469 32.5211C144.469 33.0048 144.544 33.4033 144.693 33.7156C144.842 34.018 145.046 34.2451 145.304 34.3958C145.563 34.5376 145.851 34.6076 146.17 34.6076C146.657 34.6076 147.095 34.4622 147.482 34.1697C147.87 33.8672 148.233 33.4033 148.572 32.7778C148.713 32.5229 148.856 32.2366 148.998 31.9189L148.899 32.294C148.81 32.5895 148.75 32.8935 148.721 33.2014C148.701 33.4634 148.721 33.686 148.781 33.8672C148.899 34.3608 149.268 34.6085 149.884 34.6085C150.113 34.6085 150.346 34.5628 150.585 34.4721C150.824 34.3815 151.047 34.2253 151.256 34.0028C151.476 33.7811 151.649 33.4643 151.778 33.0497L152.137 31.9458H151.854L151.615 32.6261C151.436 33.1412 151.267 33.4885 151.108 33.6698C150.958 33.8421 150.804 33.9274 150.645 33.9274C150.476 33.9274 150.377 33.852 150.346 33.7003ZM149.551 29.8055C149.438 30.1743 149.316 30.5252 149.183 30.8563C148.935 31.5025 148.671 32.0571 148.392 32.5211C148.124 32.9743 147.86 33.327 147.602 33.5801C147.343 33.8215 147.114 33.9426 146.916 33.9426C146.727 33.9426 146.588 33.852 146.498 33.6707C146.419 33.4787 146.379 33.1915 146.379 32.8083C146.379 32.2635 146.438 31.7089 146.557 31.1444C146.677 30.5701 146.841 30.0199 147.05 29.4958C147.242 29.004 147.482 28.5326 147.766 28.0887C148.035 27.6651 148.318 27.3321 148.616 27.0898C148.924 26.8475 149.228 26.7272 149.526 26.7272C149.725 26.7272 149.884 26.7981 150.004 26.939C150.087 27.0306 150.151 27.1634 150.195 27.3393L149.551 29.8055Z" fill="#2F2352"/>
<path d="M140.419 34.3977H138.584L140.374 27.8787C140.464 27.5763 140.493 27.3645 140.464 27.2433C140.434 27.1222 140.344 27.062 140.195 27.062C140.006 27.062 139.832 27.1581 139.673 27.3492C139.513 27.5404 139.35 27.8787 139.181 28.3633L138.926 29.0732H138.643L139.031 27.9388C139.171 27.535 139.344 27.2236 139.553 27.001C139.762 26.7695 139.991 26.6079 140.24 26.5173C140.489 26.4267 140.742 26.3809 141 26.3809C141.319 26.3809 141.552 26.4464 141.701 26.5783C141.86 26.7093 141.96 26.8808 142 27.0925C142.051 27.3208 142.06 27.5563 142.03 27.7881C142.01 28.0304 141.97 28.2673 141.91 28.4988L141.67 29.4474L141.731 29.2859C142.01 28.5697 142.278 27.9999 142.537 27.5763C142.806 27.1428 143.089 26.835 143.387 26.6537C143.679 26.4736 144.015 26.3791 144.357 26.3809C144.715 26.3809 144.988 26.4868 145.178 26.6986C145.377 26.9104 145.476 27.1724 145.476 27.4856C145.476 27.7369 145.416 27.9747 145.297 28.1964C145.181 28.4044 145.017 28.5808 144.819 28.7106C144.631 28.8318 144.412 28.8919 144.163 28.8919C143.915 28.8919 143.716 28.8264 143.566 28.6954C143.427 28.5643 143.357 28.3723 143.357 28.121C143.357 27.8984 143.408 27.6974 143.507 27.5152C143.603 27.3379 143.735 27.1833 143.894 27.062C144.054 26.931 144.228 26.8404 144.417 26.7892C144.396 26.7684 144.37 26.753 144.342 26.7443C144.308 26.7337 144.273 26.7285 144.238 26.7291C144.019 26.7291 143.795 26.8099 143.566 26.9714C143.338 27.1222 143.099 27.3699 142.85 27.7127C142.601 28.0555 142.348 28.5087 142.09 29.0732C141.798 29.7407 141.539 30.4224 141.314 31.1158C141.201 31.4514 141.088 31.8122 140.975 32.199L140.419 34.3977Z" fill="#2F2352"/>
<path fill-rule="evenodd" clip-rule="evenodd" d="M134.845 32.0589L134.783 32.294C134.688 32.6356 134.623 32.9848 134.589 33.3378C134.559 33.6608 134.608 33.9328 134.737 34.1544C134.937 34.4569 135.275 34.6085 135.752 34.6085C135.981 34.6085 136.209 34.5628 136.439 34.4721C136.677 34.3815 136.901 34.2253 137.109 34.0028C137.318 33.7712 137.493 33.4481 137.632 33.0353L138.005 31.9315H137.721L137.497 32.6117C137.318 33.1358 137.145 33.484 136.976 33.6555C136.807 33.826 136.642 33.9121 136.483 33.9121C136.354 33.9121 136.269 33.8717 136.23 33.791C136.198 33.6882 136.188 33.5801 136.2 33.4733C136.219 33.345 136.249 33.2187 136.289 33.0955L138.214 26.379C137.914 26.4516 137.61 26.5023 137.303 26.5307C136.995 26.5612 136.662 26.581 136.304 26.5908L136.088 27.4003C136.079 27.1948 136.02 26.9947 135.916 26.8179C135.839 26.68 135.725 26.5663 135.588 26.489C135.452 26.4116 135.297 26.3736 135.14 26.379C134.703 26.379 134.266 26.5155 133.828 26.7874C133.362 27.0841 132.945 27.4515 132.589 27.8769C132.188 28.3407 131.838 28.8478 131.545 29.389C131.252 29.9318 131.017 30.505 130.844 31.0987C130.681 31.6328 130.596 32.1882 130.591 32.7472C130.591 33.3126 130.72 33.7658 130.979 34.1087C131.237 34.4416 131.634 34.6076 132.172 34.6076C132.55 34.6076 132.912 34.4972 133.261 34.2756C133.619 34.053 133.957 33.6851 134.275 33.1717C134.473 32.8621 134.662 32.4915 134.845 32.0589ZM133.559 33.5944C133.33 33.8062 133.127 33.9121 132.948 33.9121C132.798 33.9121 132.684 33.8367 132.604 33.6851C132.535 33.5235 132.5 33.257 132.5 32.8837C132.5 32.3488 132.559 31.7996 132.679 31.2351C132.798 30.6697 132.958 30.1258 133.157 29.6017C133.366 29.0767 133.594 28.6083 133.843 28.1946C134.091 27.7817 134.34 27.4533 134.589 27.211C134.847 26.9687 135.091 26.8484 135.32 26.8484C135.558 26.8484 135.727 26.9696 135.827 27.211C135.926 27.4299 135.952 27.7234 135.904 28.0905L135.463 29.7435L135.514 29.4806C135.354 30.1258 135.165 30.7208 134.946 31.2656C134.756 31.7526 134.527 32.2229 134.26 32.6719C134.021 33.0649 133.788 33.3728 133.559 33.5944ZM128.585 33.1107C128.515 33.353 128.496 33.5496 128.526 33.7003C128.555 33.852 128.655 33.9274 128.824 33.9274C128.984 33.9274 129.138 33.8421 129.286 33.6707C129.446 33.4885 129.615 33.1412 129.794 32.6261L130.032 31.9458H130.316L129.958 33.0497C129.829 33.4634 129.655 33.7811 129.436 34.0028C129.25 34.2089 129.02 34.3694 128.764 34.4721C128.541 34.5602 128.303 34.6064 128.063 34.6085C127.447 34.6085 127.079 34.3608 126.96 33.8672C126.897 33.6514 126.876 33.4251 126.9 33.2014C126.92 32.9393 126.979 32.636 127.079 32.294L127.177 31.9189C127.035 32.2366 126.892 32.5229 126.751 32.7778C126.413 33.4033 126.05 33.8672 125.662 34.1688C125.284 34.4583 124.822 34.6129 124.349 34.6085C124.031 34.6085 123.742 34.5367 123.484 34.3967C123.217 34.2369 123.004 33.9996 122.872 33.7156C122.723 33.4033 122.648 33.0048 122.648 32.5211C122.648 32.0571 122.723 31.5519 122.872 31.008C123.021 30.4534 123.235 29.9042 123.513 29.3594C123.788 28.8202 124.135 28.3214 124.542 27.8769C124.95 27.4228 125.403 27.0602 125.9 26.7874C126.41 26.5144 126.979 26.3741 127.556 26.379C127.854 26.379 128.088 26.4598 128.257 26.6214C128.354 26.7084 128.428 26.8188 128.476 26.9534L129.167 24.3069C129.257 23.964 129.242 23.7119 129.123 23.5503C129.003 23.3888 128.7 23.308 128.213 23.308L128.317 22.9912C128.903 22.9878 129.487 22.932 130.063 22.8243C130.557 22.7174 131.042 22.5657 131.51 22.3711L128.585 33.1107ZM127.362 30.8563C127.495 30.5243 127.618 30.1743 127.73 29.8055L128.375 27.3393C128.344 27.1921 128.278 27.0547 128.183 26.939C128.124 26.8695 128.051 26.8143 127.968 26.7777C127.886 26.741 127.796 26.7237 127.706 26.7272C127.407 26.7272 127.104 26.8484 126.796 27.0898C126.497 27.3321 126.213 27.6651 125.945 28.0887C125.661 28.5321 125.421 29.0032 125.229 29.4949C125.017 30.0289 124.853 30.5809 124.737 31.1444C124.619 31.6911 124.559 32.2488 124.558 32.8083C124.558 33.1915 124.597 33.4787 124.677 33.6698C124.766 33.852 124.906 33.9426 125.095 33.9426C125.294 33.9426 125.522 33.8215 125.781 33.5792C126.04 33.3279 126.303 32.9743 126.572 32.5202C126.882 31.9896 127.146 31.4329 127.362 30.8563Z" fill="#2F2352"/>
<path d="M114.434 34.3977H116.268L116.441 33.7138L116.432 33.7632C116.621 33.0569 116.835 32.3766 117.074 31.7206C117.306 31.0945 117.565 30.4789 117.849 29.8755C118.118 29.3101 118.386 28.8165 118.655 28.3929C118.923 27.9693 119.182 27.6418 119.431 27.4093C119.679 27.167 119.908 27.0468 120.117 27.0468C120.286 27.0468 120.39 27.1069 120.43 27.228C120.471 27.3655 120.476 27.5115 120.445 27.6516C120.415 27.8155 120.375 27.9774 120.325 28.1362L118.969 32.2959C118.829 32.7194 118.749 33.082 118.73 33.3844C118.709 33.6869 118.764 33.9346 118.893 34.1257C118.993 34.2774 119.132 34.3932 119.311 34.4739C119.501 34.5637 119.724 34.6103 119.983 34.6103C120.221 34.6103 120.46 34.5646 120.699 34.4739C120.948 34.3932 121.176 34.2415 121.385 34.0198C121.603 33.7982 121.783 33.4751 121.922 33.0515L122.295 31.9477H122.011L121.772 32.6279C121.584 33.1529 121.405 33.5002 121.236 33.6716C121.077 33.8439 120.923 33.9292 120.773 33.9292C120.614 33.9292 120.515 33.8637 120.475 33.7318C120.435 33.5918 120.46 33.3844 120.549 33.1125L122.011 28.6648C122.141 28.2718 122.205 27.9038 122.205 27.561C122.215 27.2083 122.121 26.9256 121.922 26.7138C121.733 26.4921 121.395 26.3818 120.908 26.3818C120.54 26.3818 120.186 26.4625 119.848 26.6232C119.51 26.7847 119.182 27.0665 118.864 27.4703C118.546 27.8634 118.217 28.3983 117.879 29.0732C117.655 29.5284 117.449 29.9928 117.262 30.4651L117.76 28.4988C117.82 28.2565 117.864 28.0142 117.894 27.7728C117.924 27.5215 117.914 27.2936 117.864 27.0916C117.817 26.8831 117.695 26.6999 117.522 26.5774C117.353 26.4464 117.104 26.3809 116.775 26.3809C116.377 26.3809 116.014 26.4921 115.686 26.7138C115.358 26.9355 115.089 27.3438 114.881 27.9388L114.493 29.0732H114.776L115.03 28.3624C115.209 27.8688 115.373 27.5305 115.522 27.3492C115.682 27.158 115.855 27.062 116.044 27.062C116.183 27.062 116.268 27.1024 116.298 27.1832C116.337 27.2639 116.348 27.3644 116.328 27.4856C116.305 27.6183 116.275 27.7495 116.238 27.8787L114.434 34.3977Z" fill="#2F2352"/>
<path fill-rule="evenodd" clip-rule="evenodd" d="M110.63 32.2959L110.693 32.0607C110.533 32.447 110.343 32.8192 110.123 33.1736C109.804 33.6869 109.466 34.0557 109.108 34.2774C108.76 34.4991 108.397 34.6094 108.019 34.6094C107.482 34.6094 107.084 34.4434 106.826 34.1105C106.567 33.7677 106.438 33.3144 106.438 32.7491C106.438 32.225 106.522 31.6757 106.692 31.1005C106.864 30.5068 107.099 29.9336 107.392 29.3909C107.685 28.8494 108.035 28.3423 108.437 27.8787C108.792 27.4533 109.21 27.0859 109.675 26.7892C110.112 26.5173 110.55 26.3809 110.988 26.3809C111.326 26.3809 111.584 26.5271 111.764 26.8206C111.859 26.9705 111.917 27.1643 111.935 27.4021L112.151 26.5927C112.509 26.5828 112.843 26.563 113.151 26.5325C113.469 26.502 113.772 26.4518 114.06 26.3809L112.136 33.0982C112.096 33.2213 112.066 33.3477 112.047 33.476C112.036 33.5829 112.046 33.6909 112.077 33.7937C112.117 33.8744 112.201 33.9148 112.33 33.9148C112.49 33.9148 112.653 33.8296 112.822 33.6582C112.991 33.4868 113.166 33.1377 113.344 32.6144L113.568 31.9333H113.852L113.479 33.0371C113.34 33.4509 113.166 33.773 112.957 34.0064C112.771 34.212 112.542 34.3721 112.286 34.4748C112.068 34.5636 111.835 34.6099 111.599 34.6112C111.122 34.6112 110.784 34.4596 110.585 34.1571C110.456 33.9355 110.406 33.6636 110.436 33.3405C110.471 32.9875 110.536 32.6374 110.63 32.2959ZM108.794 33.9139C108.974 33.9139 109.178 33.808 109.407 33.5962C109.635 33.3746 109.869 33.0668 110.108 32.6737C110.346 32.2806 110.575 31.8121 110.794 31.2674C111.012 30.7227 111.202 30.1277 111.361 29.4815L111.311 29.7453L111.751 28.0932C111.798 27.7252 111.773 27.4318 111.674 27.2137C111.574 26.9714 111.405 26.8502 111.166 26.8502C110.938 26.8502 110.695 26.9714 110.436 27.2128C110.187 27.4551 109.939 27.7827 109.69 28.1964C109.441 28.6092 109.212 29.0786 109.003 29.6027C108.803 30.1338 108.643 30.6799 108.526 31.236C108.409 31.7779 108.349 32.3308 108.347 32.8855C108.347 33.2588 108.382 33.5262 108.452 33.6869C108.532 33.8386 108.646 33.9139 108.794 33.9139Z" fill="#2F2352"/>
<path d="M107.472 26.8949L107.517 26.5925H105.74L106.442 24.1119C106.148 24.1854 105.849 24.2361 105.548 24.2636C105.24 24.2932 104.906 24.3139 104.548 24.3237L103.907 26.5925H102.549L102.475 26.8949H103.822L102.295 32.2957C102.166 32.739 102.121 33.1375 102.161 33.4902C102.211 33.833 102.35 34.1058 102.579 34.3068C102.817 34.5087 103.161 34.6102 103.608 34.6102C104.115 34.6102 104.553 34.4737 104.921 34.2009C105.289 33.929 105.578 33.4803 105.786 32.8548L106.085 31.9475H105.801L105.578 32.5676C105.398 33.0719 105.2 33.4246 104.98 33.6266C104.771 33.8285 104.562 33.929 104.354 33.929C104.271 33.9318 104.19 33.9154 104.115 33.8812C104.04 33.8469 103.974 33.7958 103.922 33.7316C103.822 33.6014 103.812 33.395 103.892 33.1123L105.654 26.8949H107.472ZM102.531 23.5825C102.432 23.8445 102.298 24.2286 102.129 24.7321C101.969 25.2257 101.811 25.8718 101.651 26.6678H101.353C101.382 26.5269 101.403 26.3807 101.413 26.2299C101.432 26.0946 101.442 25.9582 101.443 25.8216C101.443 25.4276 101.363 25.0857 101.204 24.7931C101.051 24.4863 100.805 24.237 100.503 24.0814C100.195 23.9002 99.7964 23.8095 99.3096 23.8095C98.7821 23.8095 98.3343 23.9504 97.967 24.2331C97.5988 24.505 97.4147 24.9439 97.4147 25.5487C97.4147 25.9221 97.4988 26.2757 97.6678 26.6077C97.8475 26.9308 98.0714 27.2485 98.3396 27.5608C98.6184 27.8632 98.9114 28.171 99.2194 28.4834C99.5282 28.7858 99.8168 29.099 100.085 29.4212C100.353 29.7443 100.573 30.0871 100.742 30.4496C100.92 30.8032 101.01 31.1909 101.01 31.6145C101.01 32.1494 100.881 32.608 100.622 32.9912C100.37 33.3676 100.039 33.6827 99.6522 33.9137C99.2469 34.1487 98.8097 34.322 98.3547 34.428C97.9166 34.5466 97.4654 34.6078 97.012 34.6102C96.5642 34.6102 96.1916 34.5743 95.8933 34.5043C95.6384 34.4556 95.392 34.3688 95.1623 34.2467C94.967 34.1381 94.7728 34.0274 94.5799 33.9146C94.4921 33.8399 94.3908 33.7832 94.2816 33.7477C94.2121 33.7123 94.1362 33.6915 94.0586 33.6867C93.9285 33.6867 93.8196 33.7522 93.7302 33.8841C93.6129 34.0811 93.5131 34.2884 93.432 34.5034H93.1328C93.3792 33.8882 93.5838 33.2568 93.7453 32.6134C93.8639 32.1494 93.9984 31.5696 94.148 30.8732H94.4462C94.4046 31.0736 94.3698 31.2753 94.3418 31.4781C94.3117 31.68 94.302 31.8819 94.3117 32.0839C94.3418 32.7893 94.5551 33.334 94.9534 33.7172C95.3614 34.1004 95.9579 34.2916 96.743 34.2916C97.4094 34.2916 97.9121 34.1507 98.2502 33.8689C98.5883 33.5763 98.7574 33.1527 98.7574 32.5981C98.7574 32.1745 98.6777 31.7904 98.5184 31.4485C98.368 31.0928 98.167 30.7614 97.9219 30.4649C97.669 30.158 97.4054 29.8605 97.1315 29.5728C96.857 29.2852 96.5931 28.9873 96.3403 28.6799C96.0961 28.3745 95.8906 28.0392 95.7287 27.6819C95.5658 27.3 95.4847 26.8874 95.4906 26.4713C95.4906 25.9678 95.595 25.529 95.8039 25.1557C96.0143 24.7915 96.2989 24.477 96.6385 24.2331C96.9869 23.9809 97.3755 23.7915 97.7873 23.6731C98.188 23.5448 98.6054 23.4786 99.0255 23.4766C99.5628 23.4766 100.005 23.5421 100.353 23.674C100.702 23.8041 101 23.9612 101.249 24.1425L101.532 24.3237C101.621 24.3641 101.691 24.3839 101.741 24.3839C101.88 24.3839 102.044 24.1173 102.233 23.5825H102.531Z" fill="#2F2352"/>
<path fill-rule="evenodd" clip-rule="evenodd" d="M88.1316 33.7003C88.1015 33.5496 88.1218 33.353 88.1918 33.1107L91.1151 22.3711C90.6471 22.5657 90.1628 22.7174 89.668 22.8243C89.1609 22.9257 88.5794 22.9805 87.9227 22.9912L87.8183 23.3089C88.305 23.3089 88.6095 23.3897 88.7281 23.5512C88.8476 23.7128 88.8626 23.964 88.7732 24.3069L88.0811 26.9534C88.0377 26.8257 87.9627 26.7114 87.8634 26.6213C87.6944 26.4598 87.4607 26.379 87.1624 26.379C86.565 26.379 86.0136 26.5155 85.5065 26.7874C84.9964 27.07 84.5373 27.4384 84.1488 27.8769C83.7407 28.3212 83.3944 28.82 83.1195 29.3594C82.8486 29.8843 82.6335 30.437 82.4778 31.008C82.3362 31.4998 82.2609 32.0088 82.2539 32.5211C82.2539 33.0048 82.3291 33.4033 82.4778 33.7156C82.6274 34.018 82.831 34.2451 83.0894 34.3958C83.3478 34.5376 83.6364 34.6076 83.955 34.6076C84.4418 34.6076 84.8799 34.4622 85.2675 34.1697C85.6552 33.8672 86.0181 33.4033 86.3561 32.7778C86.4978 32.5229 86.6403 32.2366 86.7827 31.9189L86.6854 32.294C86.5949 32.5894 86.5347 32.8935 86.5057 33.2014C86.482 33.4251 86.5021 33.6514 86.565 33.8672C86.6845 34.3608 87.0518 34.6085 87.6696 34.6085C87.8979 34.6085 88.1316 34.5628 88.3705 34.4721C88.6095 34.3815 88.8325 34.2253 89.0414 34.0028C89.2609 33.7811 89.4344 33.4643 89.5636 33.0497L89.922 31.9458H89.6388L89.3999 32.6261C89.2211 33.1412 89.052 33.4885 88.8927 33.6698C88.7432 33.8421 88.5892 33.9274 88.4298 33.9274C88.2617 33.9274 88.1617 33.852 88.1316 33.7003ZM87.335 29.8055C87.2235 30.1743 87.1014 30.5252 86.9677 30.8563C86.7199 31.5025 86.4562 32.0571 86.1774 32.5211C85.9092 32.9743 85.6454 33.327 85.387 33.5801C85.1286 33.8215 84.9002 33.9426 84.7002 33.9426C84.5117 33.9426 84.3727 33.852 84.2833 33.6707C84.2037 33.4787 84.1639 33.1915 84.1639 32.8083C84.1639 32.2635 84.2232 31.7089 84.3426 31.1444C84.4621 30.5701 84.6259 30.0199 84.8347 29.4958C85.0272 29.0039 85.2673 28.5325 85.5516 28.0887C85.8198 27.6651 86.103 27.3321 86.4013 27.0898C86.7093 26.8475 87.0129 26.7272 87.3111 26.7272C87.5103 26.7272 87.6696 26.7981 87.7891 26.939C87.8723 27.0306 87.936 27.1634 87.9802 27.3393L87.335 29.8055Z" fill="#2F2352"/>
<path d="M75.8738 34.3977H74.0391L75.8446 27.8787C75.8844 27.7378 75.9136 27.6068 75.9331 27.4856C75.9553 27.3842 75.945 27.2783 75.9039 27.1832C75.8738 27.1024 75.7888 27.062 75.6499 27.062C75.4613 27.062 75.287 27.158 75.1277 27.3492C74.979 27.5305 74.8144 27.8688 74.6356 28.3633L74.3825 29.0732H74.0992L74.4869 27.9388C74.6958 27.3438 74.9648 26.9355 75.2923 26.7138C75.6198 26.4921 75.9827 26.3818 76.3809 26.3818C76.7093 26.3818 76.958 26.4464 77.127 26.5774C77.3004 26.6997 77.4228 26.883 77.4704 27.0916C77.52 27.2936 77.5297 27.5206 77.5005 27.7728C77.4701 28.0173 77.4252 28.2598 77.366 28.4988L76.8686 30.466C77.0792 29.9374 77.2846 29.4743 77.4855 29.0732C77.8236 28.3983 78.151 27.8634 78.4697 27.4703C78.7883 27.0665 79.1158 26.7847 79.4538 26.6232C79.7928 26.4616 80.1451 26.3809 80.5133 26.3809C81 26.3809 81.339 26.4921 81.5275 26.7138C81.7267 26.9256 81.8214 27.2074 81.8108 27.561C81.8108 27.9038 81.747 28.2718 81.6169 28.6648L80.1557 33.1125C80.0654 33.3844 80.0406 33.5918 80.0805 33.7318C80.1203 33.8637 80.2203 33.9292 80.3796 33.9292C80.5283 33.9292 80.6823 33.8439 80.8416 33.6725C81.0107 33.5002 81.1894 33.152 81.3788 32.6279L81.6178 31.9477H81.901L81.5275 33.0515C81.3886 33.4751 81.2089 33.7982 80.9912 34.0207C80.8037 34.2283 80.5674 34.3842 80.3044 34.4739C80.0758 34.5629 79.8332 34.6091 79.5884 34.6103C79.3299 34.6103 79.106 34.5646 78.9175 34.4739C78.7378 34.3932 78.5989 34.2765 78.4998 34.1257C78.3705 33.9346 78.3157 33.6869 78.3351 33.3844C78.3555 33.082 78.4351 32.7194 78.5741 32.2959L79.9318 28.1362C79.9813 27.9747 80.0212 27.8132 80.0513 27.6516C80.0826 27.5115 80.0774 27.3655 80.0362 27.228C79.9964 27.1069 79.892 27.0468 79.7229 27.0468C79.514 27.0468 79.2848 27.1679 79.037 27.4093C78.7883 27.6418 78.529 27.9693 78.2608 28.3929C77.9631 28.8702 77.6941 29.3653 77.4554 29.8755C77.1872 30.4409 76.9279 31.0547 76.6792 31.7206C76.4402 32.3757 76.2278 33.0569 76.0384 33.7632L76.0473 33.7138L75.8738 34.3977Z" fill="#2F2352"/>
<path fill-rule="evenodd" clip-rule="evenodd" d="M70.2994 32.0593L70.2374 32.2944C70.1435 32.6361 70.0783 32.9852 70.0427 33.3381C70.0126 33.6612 70.0622 33.9331 70.1914 34.1548C70.3906 34.4572 70.7286 34.6089 71.2066 34.6089C71.4616 34.607 71.7136 34.5523 71.9471 34.4482C72.1806 34.344 72.3906 34.1925 72.5643 34.0031C72.7731 33.7716 72.9466 33.4485 73.0864 33.0357L73.4582 31.9318H73.1749L72.9519 32.6121C72.7722 33.1362 72.5979 33.4844 72.4297 33.6558C72.2607 33.8263 72.0961 33.9125 71.9376 33.9125C71.8075 33.9125 71.7235 33.8721 71.6836 33.7913C71.6525 33.6886 71.6423 33.5805 71.6535 33.4736C71.6739 33.3426 71.7031 33.217 71.7438 33.0958L73.6679 26.3794C73.3686 26.452 73.0646 26.5026 72.7581 26.5311C72.4492 26.5616 72.1164 26.5813 71.758 26.5912L71.542 27.4007C71.5328 27.1952 71.4738 26.9951 71.3703 26.8182C71.2927 26.6805 71.1794 26.5669 71.0428 26.4895C70.9062 26.4122 70.7514 26.3741 70.595 26.3794C70.1569 26.3794 69.7188 26.5158 69.2816 26.7877C68.8444 27.0605 68.4319 27.4231 68.0434 27.8772C67.6416 28.3409 67.2913 28.848 66.999 29.3894C66.7056 29.9322 66.4706 30.5053 66.298 31.099C66.1353 31.6332 66.0501 32.1885 66.0449 32.7476C66.0449 33.313 66.1741 33.7662 66.4326 34.109C66.691 34.4419 67.0893 34.608 67.6256 34.608C68.0036 34.608 68.3673 34.4976 68.7143 34.2759C69.0727 34.0534 69.4117 33.6854 69.7294 33.1721C69.9268 32.8625 70.1162 32.4918 70.2994 32.0593ZM69.0134 33.5948C68.7851 33.8066 68.5806 33.9125 68.4018 33.9125C68.2523 33.9125 68.1381 33.8371 68.0584 33.6854C67.9894 33.5239 67.954 33.2573 67.954 32.884C67.954 32.3491 68.0142 31.7999 68.1337 31.2354C68.2523 30.67 68.4116 30.1262 68.6107 29.6021C68.8196 29.0771 69.0479 28.6086 69.2966 28.1949C69.5453 27.7821 69.794 27.4536 70.0427 27.2113C70.3012 26.969 70.5446 26.8487 70.7738 26.8487C71.0128 26.8487 71.1809 26.9699 71.2809 27.2113C71.38 27.4303 71.4048 27.7237 71.3579 28.0908L70.9172 29.7439L70.9676 29.4809C70.8083 30.1262 70.6198 30.7212 70.4012 31.2659C70.1817 31.8098 69.9533 32.2791 69.7144 32.6722C69.4754 33.0653 69.2417 33.3731 69.0134 33.5948Z" fill="#2F2352"/>
<path d="M62.0554 34.3957H60.2207L62.0103 27.8767C62.0997 27.5743 62.1298 27.3625 62.0997 27.2414C62.0705 27.1202 61.9811 27.0601 61.8315 27.0601C61.643 27.0601 61.4686 27.1561 61.3093 27.3473C61.15 27.5384 60.9863 27.8767 60.8172 28.3614L60.5632 29.0712H60.28L60.6677 27.9369C60.8075 27.533 60.981 27.2216 61.1898 26.9991C61.3987 26.7675 61.6279 26.606 61.8766 26.5153C62.1245 26.4247 62.3785 26.3789 62.6378 26.3789C62.9555 26.3789 63.1892 26.4444 63.3379 26.5764C63.4961 26.7051 63.6025 26.8879 63.637 27.0906C63.6866 27.3024 63.6963 27.5339 63.6662 27.7861C63.6468 28.0284 63.6069 28.2653 63.5468 28.4969L63.3078 29.4455L63.3317 29.38L63.368 29.2839C63.6468 28.5678 63.9149 27.9979 64.1734 27.5743C64.4424 27.1409 64.7256 26.833 65.0239 26.6517C65.3162 26.4716 65.6519 26.3772 65.9939 26.3789C66.3515 26.3789 66.625 26.4848 66.8144 26.6966C67.0126 26.9084 67.1126 27.1705 67.1126 27.4837C67.1126 27.735 67.0525 27.9728 66.933 28.1944C66.8172 28.4024 66.6536 28.5788 66.4559 28.7087C66.2588 28.8319 66.0308 28.8948 65.7992 28.89C65.5514 28.89 65.3523 28.8244 65.2027 28.6934C65.0637 28.5624 64.9938 28.3703 64.9938 28.1191C64.9938 27.8965 65.0434 27.6955 65.1434 27.5133C65.2425 27.332 65.3717 27.1812 65.531 27.0601C65.6904 26.9291 65.8638 26.8384 66.0532 26.7873C66.0323 26.7666 66.0068 26.7512 65.9789 26.7424C65.9591 26.7356 65.9386 26.7311 65.9178 26.7289C65.9031 26.7275 65.8883 26.7269 65.8736 26.7271C65.6558 26.7271 65.431 26.8079 65.2027 26.9694C64.9743 27.1202 64.7354 27.3679 64.4867 27.7107C64.2389 28.0535 63.9849 28.5068 63.7255 29.0712C63.4339 29.7387 63.1752 30.4204 62.9502 31.1138C62.8378 31.4485 62.7245 31.8102 62.6112 32.197L62.0554 34.3957Z" fill="#2F2352"/>
<path fill-rule="evenodd" clip-rule="evenodd" d="M59.2656 24.2475C58.7682 23.884 57.9725 23.7028 56.8786 23.7028C56.5405 23.7028 56.2024 23.7081 55.8635 23.718C55.536 23.7279 55.1581 23.7333 54.7306 23.7333H53.9845C53.7154 23.7225 53.4623 23.718 53.2233 23.718C53.0244 23.7091 52.8256 23.6989 52.6268 23.6875L52.5525 23.9899C52.9401 23.9899 53.2039 24.0402 53.3428 24.1416C53.4924 24.2313 53.5614 24.3731 53.5517 24.5652C53.5316 24.8101 53.4917 25.053 53.4322 25.2912L51.4629 32.7938C51.3744 33.1563 51.2744 33.4292 51.1647 33.6104C51.0656 33.7838 50.9062 33.9135 50.7177 33.9739C50.5283 34.034 50.2646 34.0744 49.9265 34.0942L49.8672 34.3966C50.0353 34.3876 50.2398 34.3822 50.4779 34.3822C50.7168 34.3715 50.9709 34.367 51.239 34.367C51.9898 34.3438 52.7411 34.3489 53.4915 34.3822C53.8995 34.3912 54.273 34.3975 54.6111 34.3975C55.2572 34.3975 55.8688 34.3311 56.4458 34.2001C56.9777 34.0777 57.4864 33.8686 57.9522 33.5808C58.3689 33.3292 58.7214 32.9818 58.9815 32.5667C59.2399 32.1629 59.3692 31.6899 59.3692 31.1452C59.3692 30.5296 59.1213 30.0001 58.6239 29.5567C58.1372 29.1125 57.3654 28.8504 56.3113 28.7697C56.969 28.6739 57.6079 28.475 58.2053 28.1801C58.7629 27.8875 59.2001 27.5294 59.5187 27.1058C59.8395 26.7037 60.0133 26.2015 60.0108 25.6843C60.0108 25.0794 59.7639 24.6002 59.2656 24.2475ZM54.504 28.9671L53.5065 32.7938C53.4472 33.0451 53.4074 33.2676 53.3879 33.4588C53.3773 33.6508 53.4269 33.7971 53.5366 33.8985C53.6464 33.999 53.8499 34.0493 54.1482 34.0493C54.8545 34.0493 55.4315 33.9129 55.8785 33.641C56.3164 33.3798 56.6653 32.9894 56.8786 32.5219C57.0972 32.0372 57.2061 31.4925 57.2061 30.8885C57.2061 30.5143 57.1415 30.1867 57.0123 29.9049C56.8985 29.6187 56.6939 29.379 56.4308 29.2238C56.1626 29.0524 55.8042 28.9671 55.3563 28.9671H54.504ZM54.5713 28.7096H55.2528C55.8192 28.7096 56.3016 28.5633 56.6989 28.2707C57.107 27.9683 57.4158 27.5752 57.6247 27.0915C57.8422 26.6123 57.954 26.0907 57.9522 25.5631C57.9522 25.0588 57.8531 24.6711 57.6539 24.3983C57.4654 24.1263 57.1317 23.9899 56.6538 23.9899C56.3069 23.9899 56.0582 24.0608 55.9086 24.2017C55.7599 24.3328 55.6307 24.6199 55.5209 25.0633L54.5713 28.7096Z" fill="#2F2352"/>
</g>
<defs>
<clipPath id="clip0_350_39922">
<rect width="154" height="35" fill="white"/>
</clipPath>
</defs>
</svg>
