<svg width="153" height="41" viewBox="0 0 153 41" fill="none" xmlns="http://www.w3.org/2000/svg">
<rect x="0.222656" width="152.183" height="40.8477" rx="8.13811" fill="black" fill-opacity="0.01"/>
<rect x="3.47656" y="3.25586" width="145.672" height="34.3372" rx="6.51049" fill="white" fill-opacity="0.43"/>
<rect x="11.9453" y="11.6484" width="11.6079" height="11.6078" rx="3.24768" fill="#6C4BFF"/>
<path d="M15.4297 17.9555L17.0394 19.4452L20.3408 15.3789" stroke="white" stroke-width="0.974305" stroke-linecap="round"/>
<path d="M34.9954 14.5461V21.6484H33.6984L30.6084 17.1783H30.5564V21.6484H29.0548V14.5461H30.3726L33.4383 19.0128H33.5007V14.5461H34.9954ZM38.6359 21.7525C38.0879 21.7525 37.6163 21.6415 37.2209 21.4196C36.8279 21.1953 36.525 20.8786 36.3123 20.4693C36.0996 20.0578 35.9933 19.5711 35.9933 19.0093C35.9933 18.4614 36.0996 17.9805 36.3123 17.5667C36.525 17.1528 36.8244 16.8303 37.2105 16.5991C37.5989 16.3679 38.0544 16.2523 38.5769 16.2523C38.9283 16.2523 39.2555 16.309 39.5583 16.4222C39.8635 16.5332 40.1294 16.7008 40.356 16.9251C40.5848 17.1494 40.7629 17.4314 40.89 17.7713C41.0172 18.1088 41.0808 18.5042 41.0808 18.9573V19.3631H36.5828V18.4475H39.6901C39.6901 18.2348 39.6439 18.0464 39.5514 17.8823C39.4589 17.7181 39.3306 17.5898 39.1665 17.4973C39.0046 17.4025 38.8162 17.3551 38.6012 17.3551C38.3769 17.3551 38.1781 17.4071 38.0047 17.5112C37.8336 17.6129 37.6995 17.7505 37.6024 17.9239C37.5053 18.095 37.4556 18.2857 37.4533 18.4961V19.3665C37.4533 19.6301 37.5018 19.8578 37.5989 20.0497C37.6984 20.2416 37.8382 20.3896 38.0186 20.4936C38.1989 20.5977 38.4128 20.6497 38.6601 20.6497C38.8243 20.6497 38.9746 20.6265 39.111 20.5803C39.2474 20.5341 39.3641 20.4647 39.4612 20.3722C39.5583 20.2798 39.6323 20.1665 39.6832 20.0324L41.0495 20.1225C40.9802 20.4508 40.838 20.7375 40.623 20.9826C40.4103 21.2253 40.1352 21.4149 39.7976 21.5513C39.4624 21.6854 39.0751 21.7525 38.6359 21.7525ZM43.0575 21.6484L41.6079 16.3217H43.1026L43.9279 19.9006H43.9765L44.8365 16.3217H46.3035L47.1774 19.8798H47.2225L48.034 16.3217H49.5252L48.0791 21.6484H46.515L45.5995 18.2984H45.5336L44.6181 21.6484H43.0575ZM58.8678 17.0326H57.3489C57.3211 16.8361 57.2645 16.6615 57.179 16.5089C57.0934 16.354 56.9836 16.2223 56.8495 16.1136C56.7154 16.0049 56.5605 15.9217 56.3848 15.8639C56.2114 15.8061 56.023 15.7772 55.8195 15.7772C55.4519 15.7772 55.1317 15.8685 54.8589 16.0512C54.5861 16.2315 54.3745 16.4951 54.2243 16.8419C54.074 17.1863 53.9988 17.6048 53.9988 18.0973C53.9988 18.6036 54.074 19.029 54.2243 19.3735C54.3769 19.7179 54.5896 19.978 54.8624 20.1538C55.1352 20.3295 55.4508 20.4173 55.8091 20.4173C56.0103 20.4173 56.1964 20.3907 56.3675 20.3376C56.5409 20.2844 56.6946 20.2069 56.8287 20.1052C56.9628 20.0012 57.0738 19.8752 57.1616 19.7272C57.2518 19.5792 57.3142 19.4105 57.3489 19.2209L58.8678 19.2278C58.8285 19.5538 58.7303 19.8682 58.5731 20.1711C58.4182 20.4716 58.2089 20.741 57.9454 20.9791C57.6841 21.2149 57.372 21.4022 57.009 21.5409C56.6484 21.6773 56.2403 21.7455 55.7848 21.7455C55.1514 21.7455 54.5849 21.6022 54.0855 21.3155C53.5885 21.0288 53.1954 20.6138 52.9064 20.0705C52.6198 19.5272 52.4764 18.8695 52.4764 18.0973C52.4764 17.3228 52.6221 16.6638 52.9134 16.1205C53.2047 15.5772 53.6 15.1634 54.0994 14.879C54.5988 14.5923 55.1606 14.449 55.7848 14.449C56.1964 14.449 56.5778 14.5068 56.9293 14.6224C57.283 14.738 57.5963 14.9068 57.8691 15.1287C58.1419 15.3483 58.3638 15.6177 58.5349 15.9367C58.7083 16.2558 58.8193 16.6211 58.8678 17.0326ZM62.3236 21.7525C61.785 21.7525 61.3191 21.638 60.9261 21.4091C60.5353 21.178 60.2336 20.8566 60.0209 20.4451C59.8082 20.0312 59.7019 19.5515 59.7019 19.0059C59.7019 18.4556 59.8082 17.9747 60.0209 17.5632C60.2336 17.1494 60.5353 16.828 60.9261 16.5991C61.3191 16.3679 61.785 16.2523 62.3236 16.2523C62.8623 16.2523 63.327 16.3679 63.7178 16.5991C64.1108 16.828 64.4137 17.1494 64.6264 17.5632C64.8391 17.9747 64.9454 18.4556 64.9454 19.0059C64.9454 19.5515 64.8391 20.0312 64.6264 20.4451C64.4137 20.8566 64.1108 21.178 63.7178 21.4091C63.327 21.638 62.8623 21.7525 62.3236 21.7525ZM62.3306 20.6081C62.5757 20.6081 62.7803 20.5387 62.9444 20.4C63.1086 20.2589 63.2322 20.0671 63.3155 19.8243C63.401 19.5815 63.4438 19.3053 63.4438 18.9955C63.4438 18.6857 63.401 18.4094 63.3155 18.1666C63.2322 17.9239 63.1086 17.732 62.9444 17.5909C62.7803 17.4499 62.5757 17.3794 62.3306 17.3794C62.0832 17.3794 61.8751 17.4499 61.7064 17.5909C61.5399 17.732 61.4139 17.9239 61.3283 18.1666C61.2451 18.4094 61.2035 18.6857 61.2035 18.9955C61.2035 19.3053 61.2451 19.5815 61.3283 19.8243C61.4139 20.0671 61.5399 20.2589 61.7064 20.4C61.8751 20.5387 62.0832 20.6081 62.3306 20.6081ZM69.322 19.3804V16.3217H70.7993V21.6484H69.3809V20.6809H69.3254C69.2052 20.993 69.0052 21.2438 68.7255 21.4334C68.448 21.623 68.1093 21.7178 67.7094 21.7178C67.3533 21.7178 67.0401 21.6369 66.7696 21.475C66.4991 21.3132 66.2875 21.0832 66.1349 20.7849C65.9846 20.4867 65.9083 20.1295 65.906 19.7133V16.3217H67.3834V19.4498C67.3857 19.7642 67.4701 20.0127 67.6365 20.1954C67.803 20.378 68.0261 20.4693 68.3059 20.4693C68.4839 20.4693 68.6503 20.4289 68.8052 20.348C68.9601 20.2647 69.085 20.1422 69.1798 19.9804C69.2769 19.8185 69.3243 19.6185 69.322 19.3804ZM71.981 21.6484V16.3217H73.4133V17.2511H73.4688C73.5659 16.9205 73.7288 16.6708 73.9577 16.502C74.1866 16.3309 74.4502 16.2454 74.7484 16.2454C74.8224 16.2454 74.9022 16.25 74.9877 16.2593C75.0733 16.2685 75.1484 16.2812 75.2131 16.2974V17.6083C75.1438 17.5875 75.0478 17.569 74.9253 17.5528C74.8028 17.5366 74.6906 17.5285 74.5889 17.5285C74.3716 17.5285 74.1774 17.5759 74.0063 17.6707C73.8375 17.7632 73.7034 17.8927 73.604 18.0591C73.5069 18.2256 73.4583 18.4175 73.4583 18.6348V21.6484H71.981ZM80.409 17.8406L79.0565 17.9239C79.0334 17.8083 78.9836 17.7042 78.9074 17.6118C78.8311 17.517 78.7305 17.4418 78.6056 17.3863C78.4831 17.3285 78.3363 17.2996 78.1652 17.2996C77.9363 17.2996 77.7433 17.3482 77.5861 17.4453C77.4289 17.5401 77.3502 17.6672 77.3502 17.8268C77.3502 17.9539 77.4011 18.0614 77.5028 18.1493C77.6046 18.2371 77.7791 18.3077 78.0265 18.3608L78.9906 18.555C79.5085 18.6614 79.8946 18.8325 80.1489 19.0683C80.4032 19.3041 80.5304 19.6139 80.5304 19.9977C80.5304 20.3468 80.4275 20.6531 80.2217 20.9167C80.0183 21.1803 79.7385 21.386 79.3825 21.534C79.0287 21.6796 78.6207 21.7525 78.1583 21.7525C77.4531 21.7525 76.8913 21.6057 76.4729 21.312C76.0567 21.0161 75.8128 20.6138 75.7411 20.1052L77.1942 20.0289C77.2381 20.2439 77.3445 20.4081 77.5132 20.5214C77.682 20.6323 77.8982 20.6878 78.1617 20.6878C78.4207 20.6878 78.6288 20.6381 78.786 20.5387C78.9455 20.437 79.0264 20.3063 79.0287 20.1468C79.0264 20.0127 78.9698 19.9029 78.8588 19.8174C78.7478 19.7295 78.5767 19.6625 78.3455 19.6162L77.4231 19.4324C76.9029 19.3284 76.5156 19.148 76.2613 18.8914C76.0093 18.6348 75.8833 18.3077 75.8833 17.91C75.8833 17.5678 75.9758 17.273 76.1607 17.0257C76.348 16.7783 76.6104 16.5876 76.948 16.4535C77.2878 16.3194 77.6855 16.2523 78.1409 16.2523C78.8137 16.2523 79.3432 16.3945 79.7293 16.6789C80.1177 16.9632 80.3442 17.3505 80.409 17.8406ZM83.8882 21.7525C83.3403 21.7525 82.8686 21.6415 82.4733 21.4196C82.0802 21.1953 81.7774 20.8786 81.5647 20.4693C81.352 20.0578 81.2456 19.5711 81.2456 19.0093C81.2456 18.4614 81.352 17.9805 81.5647 17.5667C81.7774 17.1528 82.0768 16.8303 82.4629 16.5991C82.8513 16.3679 83.3067 16.2523 83.8292 16.2523C84.1807 16.2523 84.5078 16.309 84.8107 16.4222C85.1158 16.5332 85.3817 16.7008 85.6083 16.9251C85.8372 17.1494 86.0152 17.4314 86.1424 17.7713C86.2695 18.1088 86.3331 18.5042 86.3331 18.9573V19.3631H81.8352V18.4475H84.9424C84.9424 18.2348 84.8962 18.0464 84.8037 17.8823C84.7112 17.7181 84.5829 17.5898 84.4188 17.4973C84.2569 17.4025 84.0685 17.3551 83.8535 17.3551C83.6292 17.3551 83.4304 17.4071 83.257 17.5112C83.0859 17.6129 82.9518 17.7505 82.8547 17.9239C82.7576 18.095 82.7079 18.2857 82.7056 18.4961V19.3665C82.7056 19.6301 82.7542 19.8578 82.8513 20.0497C82.9507 20.2416 83.0906 20.3896 83.2709 20.4936C83.4512 20.5977 83.6651 20.6497 83.9125 20.6497C84.0766 20.6497 84.2269 20.6265 84.3633 20.5803C84.4997 20.5341 84.6165 20.4647 84.7136 20.3722C84.8107 20.2798 84.8846 20.1665 84.9355 20.0324L86.3019 20.1225C86.2325 20.4508 86.0903 20.7375 85.8753 20.9826C85.6626 21.2253 85.3875 21.4149 85.05 21.5513C84.7147 21.6854 84.3275 21.7525 83.8882 21.7525ZM95.8517 17.0326H94.3328C94.305 16.8361 94.2484 16.6615 94.1628 16.5089C94.0773 16.354 93.9675 16.2223 93.8334 16.1136C93.6993 16.0049 93.5444 15.9217 93.3687 15.8639C93.1953 15.8061 93.0069 15.7772 92.8034 15.7772C92.4358 15.7772 92.1156 15.8685 91.8428 16.0512C91.57 16.2315 91.3584 16.4951 91.2082 16.8419C91.0579 17.1863 90.9827 17.6048 90.9827 18.0973C90.9827 18.6036 91.0579 19.029 91.2082 19.3735C91.3607 19.7179 91.5734 19.978 91.8463 20.1538C92.1191 20.3295 92.4346 20.4173 92.793 20.4173C92.9941 20.4173 93.1803 20.3907 93.3513 20.3376C93.5247 20.2844 93.6785 20.2069 93.8126 20.1052C93.9467 20.0012 94.0576 19.8752 94.1455 19.7272C94.2357 19.5792 94.2981 19.4105 94.3328 19.2209L95.8517 19.2278C95.8124 19.5538 95.7142 19.8682 95.557 20.1711C95.4021 20.4716 95.1928 20.741 94.9293 20.9791C94.668 21.2149 94.3559 21.4022 93.9929 21.5409C93.6322 21.6773 93.2242 21.7455 92.7687 21.7455C92.1352 21.7455 91.5688 21.6022 91.0694 21.3155C90.5724 21.0288 90.1793 20.6138 89.8903 20.0705C89.6037 19.5272 89.4603 18.8695 89.4603 18.0973C89.4603 17.3228 89.606 16.6638 89.8973 16.1205C90.1886 15.5772 90.5839 15.1634 91.0833 14.879C91.5827 14.5923 92.1445 14.449 92.7687 14.449C93.1803 14.449 93.5617 14.5068 93.9131 14.6224C94.2669 14.738 94.5802 14.9068 94.853 15.1287C95.1258 15.3483 95.3477 15.6177 95.5188 15.9367C95.6922 16.2558 95.8032 16.6211 95.8517 17.0326ZM96.9008 21.6484V16.3217H98.333V17.2511H98.3885C98.4856 16.9205 98.6486 16.6708 98.8775 16.502C99.1064 16.3309 99.37 16.2454 99.6682 16.2454C99.7422 16.2454 99.8219 16.25 99.9075 16.2593C99.993 16.2685 100.068 16.2812 100.133 16.2974V17.6083C100.064 17.5875 99.9676 17.569 99.8451 17.5528C99.7225 17.5366 99.6104 17.5285 99.5087 17.5285C99.2914 17.5285 99.0971 17.5759 98.9261 17.6707C98.7573 17.7632 98.6232 17.8927 98.5238 18.0591C98.4267 18.2256 98.3781 18.4175 98.3781 18.6348V21.6484H96.9008ZM103.076 21.7525C102.528 21.7525 102.057 21.6415 101.661 21.4196C101.268 21.1953 100.966 20.8786 100.753 20.4693C100.54 20.0578 100.434 19.5711 100.434 19.0093C100.434 18.4614 100.54 17.9805 100.753 17.5667C100.966 17.1528 101.265 16.8303 101.651 16.5991C102.039 16.3679 102.495 16.2523 103.017 16.2523C103.369 16.2523 103.696 16.309 103.999 16.4222C104.304 16.5332 104.57 16.7008 104.796 16.9251C105.025 17.1494 105.203 17.4314 105.33 17.7713C105.458 18.1088 105.521 18.5042 105.521 18.9573V19.3631H101.023V18.4475H104.131C104.131 18.2348 104.084 18.0464 103.992 17.8823C103.899 17.7181 103.771 17.5898 103.607 17.4973C103.445 17.4025 103.257 17.3551 103.042 17.3551C102.817 17.3551 102.619 17.4071 102.445 17.5112C102.274 17.6129 102.14 17.7505 102.043 17.9239C101.946 18.095 101.896 18.2857 101.894 18.4961V19.3665C101.894 19.6301 101.942 19.8578 102.039 20.0497C102.139 20.2416 102.279 20.3896 102.459 20.4936C102.639 20.5977 102.853 20.6497 103.101 20.6497C103.265 20.6497 103.415 20.6265 103.551 20.5803C103.688 20.5341 103.805 20.4647 103.902 20.3722C103.999 20.2798 104.073 20.1665 104.124 20.0324L105.49 20.1225C105.421 20.4508 105.278 20.7375 105.063 20.9826C104.851 21.2253 104.576 21.4149 104.238 21.5513C103.903 21.6854 103.516 21.7525 103.076 21.7525ZM108.004 21.749C107.664 21.749 107.362 21.6901 107.096 21.5721C106.83 21.4519 106.619 21.2751 106.465 21.0415C106.312 20.8057 106.236 20.5121 106.236 20.1607C106.236 19.8648 106.29 19.6162 106.399 19.4151C106.507 19.2139 106.655 19.0521 106.843 18.9296C107.03 18.807 107.242 18.7146 107.481 18.6521C107.721 18.5897 107.973 18.5458 108.237 18.5204C108.546 18.488 108.796 18.4579 108.986 18.4302C109.175 18.4001 109.313 18.3562 109.398 18.2984C109.484 18.2406 109.527 18.1551 109.527 18.0418V18.021C109.527 17.8013 109.457 17.6314 109.319 17.5112C109.182 17.391 108.988 17.3308 108.736 17.3308C108.47 17.3308 108.259 17.3898 108.101 17.5077C107.944 17.6233 107.84 17.769 107.789 17.9447L106.423 17.8337C106.492 17.51 106.629 17.2303 106.832 16.9945C107.036 16.7563 107.298 16.5737 107.619 16.4465C107.943 16.3171 108.318 16.2523 108.743 16.2523C109.039 16.2523 109.322 16.287 109.593 16.3564C109.865 16.4257 110.107 16.5332 110.317 16.6789C110.53 16.8245 110.698 17.0118 110.82 17.2407C110.943 17.4673 111.004 17.7389 111.004 18.0556V21.6484H109.603V20.9098H109.561C109.476 21.0762 109.361 21.223 109.218 21.3502C109.075 21.475 108.902 21.5733 108.701 21.645C108.5 21.7143 108.268 21.749 108.004 21.749ZM108.427 20.7294C108.645 20.7294 108.837 20.6867 109.003 20.6011C109.169 20.5133 109.3 20.3954 109.395 20.2474C109.49 20.0994 109.537 19.9318 109.537 19.7445V19.1793C109.491 19.2093 109.427 19.2371 109.346 19.2625C109.268 19.2856 109.179 19.3076 109.079 19.3284C108.98 19.3469 108.881 19.3642 108.781 19.3804C108.682 19.3943 108.592 19.407 108.511 19.4185C108.337 19.444 108.186 19.4844 108.056 19.5399C107.927 19.5954 107.826 19.6706 107.755 19.7653C107.683 19.8578 107.647 19.9734 107.647 20.1121C107.647 20.3133 107.72 20.467 107.866 20.5734C108.014 20.6774 108.201 20.7294 108.427 20.7294ZM114.984 16.3217V17.4314H111.776V16.3217H114.984ZM112.504 15.0455H113.981V20.0116C113.981 20.148 114.002 20.2543 114.044 20.3306C114.085 20.4046 114.143 20.4566 114.217 20.4867C114.293 20.5167 114.381 20.5318 114.481 20.5318C114.55 20.5318 114.619 20.526 114.689 20.5144C114.758 20.5005 114.811 20.4901 114.848 20.4832L115.081 21.5825C115.007 21.6057 114.903 21.6323 114.768 21.6623C114.634 21.6947 114.471 21.7143 114.28 21.7213C113.923 21.7351 113.611 21.6877 113.343 21.5791C113.077 21.4704 112.87 21.3016 112.722 21.0728C112.574 20.8439 112.502 20.5549 112.504 20.2058V15.0455ZM118.316 21.7525C117.768 21.7525 117.297 21.6415 116.901 21.4196C116.508 21.1953 116.205 20.8786 115.993 20.4693C115.78 20.0578 115.674 19.5711 115.674 19.0093C115.674 18.4614 115.78 17.9805 115.993 17.5667C116.205 17.1528 116.505 16.8303 116.891 16.5991C117.279 16.3679 117.735 16.2523 118.257 16.2523C118.609 16.2523 118.936 16.309 119.239 16.4222C119.544 16.5332 119.81 16.7008 120.036 16.9251C120.265 17.1494 120.443 17.4314 120.57 17.7713C120.698 18.1088 120.761 18.5042 120.761 18.9573V19.3631H116.263V18.4475H119.37C119.37 18.2348 119.324 18.0464 119.232 17.8823C119.139 17.7181 119.011 17.5898 118.847 17.4973C118.685 17.4025 118.497 17.3551 118.282 17.3551C118.057 17.3551 117.858 17.4071 117.685 17.5112C117.514 17.6129 117.38 17.7505 117.283 17.9239C117.186 18.095 117.136 18.2857 117.134 18.4961V19.3665C117.134 19.6301 117.182 19.8578 117.279 20.0497C117.379 20.2416 117.519 20.3896 117.699 20.4936C117.879 20.5977 118.093 20.6497 118.34 20.6497C118.505 20.6497 118.655 20.6265 118.791 20.5803C118.928 20.5341 119.044 20.4647 119.142 20.3722C119.239 20.2798 119.313 20.1665 119.364 20.0324L120.73 20.1225C120.661 20.4508 120.518 20.7375 120.303 20.9826C120.091 21.2253 119.816 21.4149 119.478 21.5513C119.143 21.6854 118.755 21.7525 118.316 21.7525ZM123.688 21.7351C123.283 21.7351 122.917 21.6311 122.589 21.423C122.263 21.2126 122.004 20.904 121.812 20.4971C121.622 20.0879 121.528 19.5862 121.528 18.992C121.528 18.3816 121.626 17.8742 121.822 17.4696C122.019 17.0627 122.28 16.7586 122.606 16.5575C122.934 16.354 123.294 16.2523 123.685 16.2523C123.983 16.2523 124.231 16.3032 124.43 16.4049C124.631 16.5043 124.793 16.6292 124.916 16.7794C125.041 16.9274 125.135 17.0731 125.2 17.2164H125.245V14.5461H126.719V21.6484H125.262V20.7953H125.2C125.131 20.9433 125.032 21.0901 124.905 21.2358C124.78 21.3791 124.617 21.4982 124.416 21.593C124.217 21.6877 123.975 21.7351 123.688 21.7351ZM124.156 20.5595C124.394 20.5595 124.595 20.4948 124.76 20.3653C124.926 20.2335 125.053 20.0497 125.141 19.8139C125.231 19.5781 125.276 19.3018 125.276 18.9851C125.276 18.6683 125.232 18.3932 125.145 18.1597C125.057 17.9262 124.93 17.7458 124.763 17.6187C124.597 17.4915 124.394 17.4279 124.156 17.4279C123.913 17.4279 123.709 17.4938 123.542 17.6256C123.376 17.7574 123.25 17.94 123.164 18.1736C123.079 18.4071 123.036 18.6776 123.036 18.9851C123.036 19.2949 123.079 19.5688 123.164 19.807C123.252 20.0428 123.378 20.2277 123.542 20.3618C123.709 20.4936 123.913 20.5595 124.156 20.5595Z" fill="white"/>
<path d="M30.6894 24.9135V29.6484H29.9726V25.6302H29.9449L28.812 26.3701V25.6857L29.9935 24.9135H30.6894ZM33.6186 29.727C33.2533 29.7255 32.9412 29.6292 32.6823 29.438C32.4233 29.2469 32.2253 28.9687 32.0881 28.6034C31.9509 28.2381 31.8823 27.7981 31.8823 27.2833C31.8823 26.77 31.9509 26.3315 32.0881 25.9678C32.2268 25.604 32.4256 25.3266 32.6846 25.1355C32.9451 24.9444 33.2564 24.8488 33.6186 24.8488C33.9808 24.8488 34.2914 24.9451 34.5503 25.1378C34.8093 25.3289 35.0073 25.6064 35.1445 25.9701C35.2832 26.3323 35.3526 26.77 35.3526 27.2833C35.3526 27.7996 35.284 28.2405 35.1468 28.6057C35.0096 28.9695 34.8116 29.2477 34.5526 29.4404C34.2937 29.6315 33.9824 29.727 33.6186 29.727ZM33.6186 29.1098C33.9392 29.1098 34.1897 28.9533 34.37 28.6404C34.5519 28.3275 34.6428 27.8752 34.6428 27.2833C34.6428 26.8903 34.6012 26.5581 34.518 26.2868C34.4363 26.014 34.3184 25.8075 34.1642 25.6672C34.0116 25.5254 33.8298 25.4545 33.6186 25.4545C33.2996 25.4545 33.0491 25.6118 32.8672 25.9262C32.6853 26.2406 32.5936 26.693 32.5921 27.2833C32.5921 27.6779 32.6329 28.0116 32.7146 28.2844C32.7979 28.5556 32.9158 28.7614 33.0684 28.9017C33.221 29.0404 33.4044 29.1098 33.6186 29.1098ZM36.2375 24.9135H37.1045L38.6119 28.5942H38.6674L40.1748 24.9135H41.0417V29.6484H40.362V26.2221H40.3181L38.9217 29.6415H38.3576L36.9611 26.2198H36.9172V29.6484H36.2375V24.9135ZM44.2034 29.6484H43.445L45.1489 24.9135H45.9743L47.6782 29.6484H46.9199L45.5813 25.7736H45.5443L44.2034 29.6484ZM44.3305 27.7942H46.7904V28.3954H44.3305V27.7942ZM49.7382 31.0541C49.4561 31.0541 49.2134 31.0171 49.0099 30.9431C48.808 30.8692 48.6431 30.7713 48.5152 30.6495C48.3872 30.5278 48.2917 30.3944 48.2285 30.2495L48.8227 30.0045C48.8643 30.0723 48.9198 30.144 48.9891 30.2195C49.06 30.2966 49.1556 30.3621 49.2758 30.416C49.3976 30.47 49.554 30.4969 49.7451 30.4969C50.0071 30.4969 50.2237 30.433 50.3948 30.305C50.5659 30.1786 50.6514 29.9767 50.6514 29.6993V29.0011H50.6075C50.5659 29.0766 50.5058 29.1606 50.4272 29.2531C50.3501 29.3456 50.2437 29.4257 50.1081 29.4935C49.9725 29.5614 49.796 29.5953 49.5787 29.5953C49.2981 29.5953 49.0454 29.5298 48.8203 29.3987C48.5968 29.2662 48.4196 29.0712 48.2886 28.8138C48.1591 28.5549 48.0944 28.2366 48.0944 27.859C48.0944 27.4814 48.1583 27.1577 48.2863 26.888C48.4157 26.6182 48.593 26.4117 48.818 26.2683C49.0431 26.1235 49.2981 26.051 49.5833 26.051C49.8037 26.051 49.9817 26.088 50.1174 26.162C50.253 26.2344 50.3586 26.3192 50.4341 26.4163C50.5112 26.5134 50.5705 26.599 50.6121 26.6729H50.663V26.0973H51.3404V29.727C51.3404 30.0322 51.2695 30.2827 51.1277 30.4784C50.9859 30.6742 50.794 30.8191 50.552 30.9131C50.3116 31.0071 50.0403 31.0541 49.7382 31.0541ZM49.7313 29.0219C49.9301 29.0219 50.0981 28.9757 50.2353 28.8832C50.374 28.7892 50.4788 28.6551 50.5497 28.4809C50.6221 28.3052 50.6583 28.0948 50.6583 27.8497C50.6583 27.6108 50.6229 27.4004 50.552 27.2186C50.4811 27.0367 50.3771 26.8949 50.2399 26.7932C50.1027 26.6899 49.9332 26.6383 49.7313 26.6383C49.5232 26.6383 49.3498 26.6922 49.2111 26.8001C49.0723 26.9064 48.9675 27.0513 48.8966 27.2347C48.8273 27.4182 48.7926 27.6232 48.7926 27.8497C48.7926 28.0825 48.828 28.2867 48.8989 28.4624C48.9698 28.6381 49.0747 28.7753 49.2134 28.8739C49.3536 28.9726 49.5263 29.0219 49.7313 29.0219ZM53.7633 29.7201C53.4304 29.7201 53.1399 29.6438 52.8917 29.4912C52.6436 29.3386 52.4509 29.1252 52.3137 28.8508C52.1765 28.5765 52.1079 28.2559 52.1079 27.889C52.1079 27.5207 52.1765 27.1985 52.3137 26.9226C52.4509 26.6467 52.6436 26.4325 52.8917 26.2799C53.1399 26.1273 53.4304 26.051 53.7633 26.051C54.0962 26.051 54.3868 26.1273 54.6349 26.2799C54.8831 26.4325 55.0757 26.6467 55.2129 26.9226C55.3501 27.1985 55.4187 27.5207 55.4187 27.889C55.4187 28.2559 55.3501 28.5765 55.2129 28.8508C55.0757 29.1252 54.8831 29.3386 54.6349 29.4912C54.3868 29.6438 54.0962 29.7201 53.7633 29.7201ZM53.7656 29.1398C53.9814 29.1398 54.1602 29.0828 54.302 28.9687C54.4438 28.8547 54.5486 28.7028 54.6164 28.5133C54.6858 28.3237 54.7205 28.1148 54.7205 27.8867C54.7205 27.6601 54.6858 27.4521 54.6164 27.2625C54.5486 27.0714 54.4438 26.918 54.302 26.8024C54.1602 26.6868 53.9814 26.629 53.7656 26.629C53.5483 26.629 53.368 26.6868 53.2246 26.8024C53.0828 26.918 52.9772 27.0714 52.9079 27.2625C52.8401 27.4521 52.8062 27.6601 52.8062 27.8867C52.8062 28.1148 52.8401 28.3237 52.9079 28.5133C52.9772 28.7028 53.0828 28.8547 53.2246 28.9687C53.368 29.0828 53.5483 29.1398 53.7656 29.1398Z" fill="white"/>
</svg>
