<svg width="40" height="40" viewBox="0 0 40 40" fill="none" xmlns="http://www.w3.org/2000/svg">
<path d="M36.6693 20.1823C36.6693 10.9775 29.2073 3.51562 20.0026 3.51562C10.7979 3.51562 3.33594 10.9775 3.33594 20.1823C3.33594 29.387 10.7979 36.849 20.0026 36.849C29.2073 36.849 36.6693 29.387 36.6693 20.1823Z" stroke="#FCA311" stroke-width="2.89282"/>
<path d="M33.3307 9.68061C31.7729 9.79289 29.7776 10.396 28.3939 12.1869C25.8949 15.4216 23.3957 15.6916 21.7297 14.6133C19.2306 12.996 21.3307 10.3762 18.3976 8.95254C16.4859 8.02466 16.2194 5.49971 17.2834 3.51562" stroke="#FCA311" stroke-width="2.89282" stroke-linejoin="round"/>
<path d="M3.33594 18.5156C4.60677 19.6191 6.3867 20.6293 8.48384 20.6293C12.8167 20.6293 13.6832 21.4571 13.6832 24.7686C13.6832 28.0801 13.6832 28.0801 14.5498 30.5636C15.1135 32.1791 15.3105 33.7946 14.1869 35.1823" stroke="#FCA311" stroke-width="2.89282" stroke-linejoin="round"/>
<path d="M36.6693 22.6015C35.1908 21.7495 33.3359 21.399 31.4583 22.7485C27.8654 25.3306 25.3883 23.191 24.2724 25.3291C22.6301 28.4768 28.4954 29.4661 23.3359 36.8476" stroke="#FCA311" stroke-width="2.89282" stroke-linejoin="round"/>
</svg>
