<svg width="40" height="40" viewBox="0 0 40 40" fill="none" xmlns="http://www.w3.org/2000/svg">
<path d="M3.33594 19.9994C3.33594 14.0793 3.33594 11.1192 4.6923 9.02092C5.1941 8.24464 5.81745 7.56942 6.53412 7.02586C8.4712 5.55664 11.2039 5.55664 16.6693 5.55664H23.3359C28.8013 5.55664 31.5339 5.55664 33.4711 7.02586C34.1878 7.56942 34.8111 8.24464 35.3129 9.02092C36.6693 11.1192 36.6693 14.0793 36.6693 19.9994C36.6693 25.9195 36.6693 28.8796 35.3129 30.9779C34.8111 31.7542 34.1878 32.4294 33.4711 32.973C31.5339 34.4422 28.8013 34.4422 23.3359 34.4422H16.6693C11.2039 34.4422 8.4712 34.4422 6.53412 32.973C5.81745 32.4294 5.1941 31.7542 4.6923 30.9779C3.33594 28.8796 3.33594 25.9195 3.33594 19.9994Z" stroke="#21C48C" stroke-width="2.59645"/>
<path d="M3.33594 15.9883H36.6693" stroke="#21C48C" stroke-width="2.59645" stroke-linejoin="round"/>
<path d="M10 10.3711H11.6667M16.6667 10.3711H18.3333" stroke="#21C48C" stroke-width="2.59645" stroke-linecap="round" stroke-linejoin="round"/>
</svg>
