<svg width="34" height="34" viewBox="0 0 34 34" fill="none" xmlns="http://www.w3.org/2000/svg">
<path d="M3.54297 16.9993C3.54297 10.655 3.54297 7.48288 5.51389 5.51194C7.48483 3.54102 10.657 3.54102 17.0013 3.54102C23.3456 3.54102 26.5178 3.54102 28.4888 5.51194C30.4596 7.48288 30.4596 10.655 30.4596 16.9993C30.4596 23.3436 30.4596 26.5158 28.4888 28.4868C26.5178 30.4577 23.3456 30.4577 17.0013 30.4577C10.657 30.4577 7.48483 30.4577 5.51389 28.4868C3.54297 26.5158 3.54297 23.3436 3.54297 16.9993Z" stroke="white" stroke-width="1.5"/>
<path d="M3.54297 12.75H30.4596" stroke="white" stroke-width="1.5" stroke-linejoin="round"/>
<path d="M9.91797 8.5H9.92994" stroke="white" stroke-width="1.5" stroke-linecap="round" stroke-linejoin="round"/>
<path d="M15.582 8.5H15.594" stroke="white" stroke-width="1.5" stroke-linecap="round" stroke-linejoin="round"/>
</svg>
