<svg width="40" height="40" viewBox="0 0 40 40" fill="none" xmlns="http://www.w3.org/2000/svg">
<g clip-path="url(#clip0_381_3744)">
<path d="M24.6641 22.0156V28.6823C24.6641 31.0393 24.6641 32.2178 25.3962 32.9501C26.1286 33.6823 27.3071 33.6823 29.6641 33.6823C32.0211 33.6823 33.1996 33.6823 33.9317 32.9501C34.6641 32.2178 34.6641 31.0393 34.6641 28.6823V22.0156C34.6641 19.6586 34.6641 18.4801 33.9317 17.748C33.1996 17.0156 32.0211 17.0156 29.6641 17.0156C27.3071 17.0156 26.1286 17.0156 25.3962 17.748C24.6641 18.4801 24.6641 19.6586 24.6641 22.0156Z" stroke="#FF877E" stroke-width="3.15735" stroke-linecap="round" stroke-linejoin="round"/>
<path d="M4.66406 27.0182V13.6849C4.66406 9.75653 4.66406 7.79233 5.88516 6.57195C7.10628 5.35156 9.07163 5.35156 13.0023 5.35156H24.6759C28.6066 5.35156 30.5719 5.35156 31.7931 6.57195C32.7219 7.50023 32.9441 8.85885 32.9974 11.1849" stroke="#FF877E" stroke-width="3.15735" stroke-linecap="round" stroke-linejoin="round"/>
<path d="M19.6693 33.6823H2.19559C1.55736 33.6823 1.14226 33.0303 1.42769 32.4763L4.66927 27.0156H19.6693" stroke="#FF877E" stroke-width="3.15735" stroke-linecap="round" stroke-linejoin="round"/>
</g>
<defs>
<clipPath id="clip0_381_3744">
<rect width="40" height="40" fill="white"/>
</clipPath>
</defs>
</svg>
